<?xml version="1.0" encoding="UTF-8"?>
<svg width="16px" height="16px" viewBox="0 0 16 16" xmlns="http://www.w3.org/2000/svg">
 <g fill="#241f31">
  <path d="m2.1875 1c-1.207 0-2.1875 1.0156-2.1875 2.2188v9.5625c0 1.2031 0.98047 2.2188 2.1875 2.2188h11.625c1.207 0 2.1875-1.0156 2.1875-2.2188v-9.5625c0-1.2031-0.98047-2.2188-2.1875-2.2188zm0 2h11.625c0.12109 0 0.1875 0.082031 0.1875 0.21875v9.5625c0 0.13672-0.066406 0.21875-0.1875 0.21875h-11.625c-0.12109 0-0.1875-0.082031-0.1875-0.21875v-9.5625c0-0.13672 0.066406-0.21875 0.1875-0.21875z"/>
  <path d="m4.3125 4.9062c-0.21484 0.054688-0.38281 0.22266-0.4375 0.44141-0.050781 0.21484 0.019531 0.44141 0.1875 0.58984l1.5625 1.5625-1.5625 1.5625c-0.24219 0.24219-0.24219 0.63281 0 0.875s0.63281 0.24219 0.875 0l2-2c0.12109-0.11328 0.1875-0.27344 0.1875-0.4375s-0.066406-0.32422-0.1875-0.4375l-2-2c-0.16016-0.16797-0.40234-0.23047-0.625-0.15625z"/>
  <path d="m8 9h3v1h-3z"/>
 </g>
</svg>
