<?xml version="1.0" encoding="UTF-8" standalone="no"?>
<!-- Created with Inkscape (http://www.inkscape.org/) -->

<svg
   width="448"
   height="248"
   viewBox="0 0 118.53333 65.616666"
   version="1.1"
   id="svg1"
   sodipodi:docname="license_warning.svg"
   xml:space="preserve"
   inkscape:version="1.1.2 (0a00cf5339, 2022-02-04)"
   xmlns:inkscape="http://www.inkscape.org/namespaces/inkscape"
   xmlns:sodipodi="http://sodipodi.sourceforge.net/DTD/sodipodi-0.dtd"
   xmlns="http://www.w3.org/2000/svg"
   xmlns:svg="http://www.w3.org/2000/svg"><sodipodi:namedview
     id="namedview1"
     pagecolor="#ffffff"
     bordercolor="#666666"
     borderopacity="1.0"
     inkscape:showpageshadow="2"
     inkscape:pageopacity="0.0"
     inkscape:pagecheckerboard="0"
     inkscape:deskcolor="#d1d1d1"
     inkscape:document-units="mm"
     inkscape:zoom="1.4142136"
     inkscape:cx="269.40768"
     inkscape:cy="212.13203"
     inkscape:window-width="1920"
     inkscape:window-height="1020"
     inkscape:window-x="0"
     inkscape:window-y="0"
     inkscape:window-maximized="1"
     inkscape:current-layer="layer1"
     inkscape:pageshadow="2"
     showgrid="false"
     inkscape:snap-global="false"
     inkscape:clip-to-page="false" /><defs
     id="defs1"><pattern
       patternUnits="userSpaceOnUse"
       width="110.52601"
       height="110.52605"
       patternTransform="translate(193.15787,544.1365)"
       preserveAspectRatio="xMidYMid"
       id="pattern4"
       style="fill:#000000"
       inkscape:label="pattern4"><g
         id="g4"
         transform="matrix(3.7795276,0,0,3.7795276,-193.15787,-544.1365)"><rect
           style="fill:#ecbd27;stroke:none;stroke-width:0.757;stroke-dasharray:none"
           id="rect1"
           width="29.24334"
           height="29.24334"
           x="51.106354"
           y="143.96945"
           rx="0"
           ry="0" /><path
           id="rect3"
           style="stroke-width:0.757"
           d="M 65.728024,143.96945 H 80.349693 L 65.728024,173.2128 h -14.62167 z"
           sodipodi:nodetypes="ccccc" /></g></pattern><clipPath
       clipPathUnits="userSpaceOnUse"
       id="clipPath133"><path
         id="path133"
         style="fill:#00ff00;stroke-width:1.37751"
         d="m 132.97691,210.00713 29.90707,-26.08955 26.08956,29.90707 -29.90708,26.08955 z" /></clipPath><pattern
       patternUnits="userSpaceOnUse"
       width="150.00002"
       height="150.00002"
       patternTransform="translate(33.324677,711.40869)"
       preserveAspectRatio="xMidYMid"
       id="pattern133"
       style="fill:#000000"
       inkscape:label="pattern133"><g
         id="g39"
         transform="matrix(2.848116,2.4845651,-2.4845651,2.848116,143.04271,-928.51446)"
         clip-path="url(#clipPath133)"><path
           id="rect8"
           style="fill-opacity:0.999999;stroke-width:0.505475"
           d="m 107.39558,183.63788 h 3.57466 v 56.65157 h -3.57466 z" /><path
           id="rect9"
           style="fill:#f4c328;stroke-width:0.505475"
           d="m 110.97024,183.63788 h 3.57466 v 56.65157 h -3.57466 z" /><path
           id="rect10"
           style="fill-opacity:0.999999;stroke-width:0.505475"
           d="m 114.5449,183.63788 h 3.57466 v 56.65157 h -3.57466 z" /><path
           id="rect11"
           style="fill:#f4c328;stroke-width:0.505475"
           d="m 118.11956,183.63788 h 3.57466 v 56.65157 h -3.57466 z" /><path
           id="rect12"
           style="fill-opacity:0.999999;stroke-width:0.505475"
           d="m 121.69422,183.63788 h 3.57466 v 56.65157 h -3.57466 z" /><path
           id="rect13"
           style="fill:#f4c328;stroke-width:0.505475"
           d="m 125.26888,183.63788 h 3.57466 v 56.65157 h -3.57466 z" /><path
           id="rect14"
           style="fill-opacity:0.999999;stroke-width:0.505475"
           d="m 128.84354,183.63788 h 3.57466 v 56.65157 h -3.57466 z" /><path
           id="rect15"
           style="fill:#f4c328;stroke-width:0.505475"
           d="m 132.4182,183.63788 h 3.57466 v 56.65157 h -3.57466 z" /><path
           id="rect16"
           style="fill-opacity:0.999999;stroke-width:0.505475"
           d="m 135.99286,183.63788 h 3.57466 v 56.65157 h -3.57466 z" /><path
           id="rect17"
           style="fill:#f4c328;stroke-width:0.505475"
           d="m 139.56752,183.63788 h 3.57466 v 56.65157 h -3.57466 z" /><path
           id="rect18"
           style="fill-opacity:0.999999;stroke-width:0.505475"
           d="m 143.14218,183.63788 h 3.57466 v 56.65157 h -3.57466 z" /><path
           id="rect19"
           style="fill:#f4c328;stroke-width:0.505475"
           d="m 146.71684,183.63788 h 3.57466 v 56.65157 h -3.57466 z" /><path
           id="rect20"
           style="fill-opacity:0.999999;stroke-width:0.505475"
           d="m 150.2915,183.63788 h 3.57466 v 56.65157 h -3.57466 z" /><path
           id="rect21"
           style="fill:#f4c328;stroke-width:0.505475"
           d="m 153.86617,183.63788 h 3.57465 v 56.65157 h -3.57465 z" /><path
           id="rect22"
           style="fill-opacity:0.999999;stroke-width:0.505475"
           d="m 157.44081,183.63788 h 3.57466 v 56.65157 h -3.57466 z" /><path
           id="rect23"
           style="fill:#f4c328;stroke-width:0.505475"
           d="m 161.01547,183.63788 h 3.57466 v 56.65157 h -3.57466 z" /><path
           id="rect24"
           style="fill-opacity:0.999999;stroke-width:0.505475"
           d="m 164.59013,183.63788 h 3.57466 v 56.65157 h -3.57466 z" /><path
           id="rect25"
           style="fill:#f4c328;stroke-width:0.505475"
           d="m 168.16479,183.63788 h 3.57466 v 56.65157 h -3.57466 z" /><path
           id="rect26"
           style="fill-opacity:0.999999;stroke-width:0.505475"
           d="m 171.73946,183.63788 h 3.57466 v 56.65157 h -3.57466 z" /><path
           id="rect27"
           style="fill:#f4c328;stroke-width:0.505475"
           d="m 175.31412,183.63788 h 3.57466 v 56.65157 h -3.57466 z" /><path
           id="rect28"
           style="fill-opacity:0.999999;stroke-width:0.505475"
           d="m 178.88878,183.63788 h 3.57466 v 56.65157 h -3.57466 z" /><path
           id="rect29"
           style="fill:#f4c328;stroke-width:0.505475"
           d="m 182.46344,183.63788 h 3.57466 v 56.65157 h -3.57466 z" /><path
           id="rect30"
           style="fill-opacity:0.999999;stroke-width:0.505475"
           d="m 186.03809,183.63788 h 3.57466 v 56.65157 h -3.57466 z" /><path
           id="rect31"
           style="fill:#f4c328;stroke-width:0.505475"
           d="m 189.61275,183.63788 h 3.57466 v 56.65157 h -3.57466 z" /><path
           id="rect32"
           style="fill-opacity:0.999999;stroke-width:0.505475"
           d="m 193.18741,183.63788 h 3.57466 v 56.65157 h -3.57466 z" /><path
           id="rect33"
           style="fill:#f4c328;stroke-width:0.505475"
           d="m 196.76207,183.63788 h 3.57466 v 56.65157 h -3.57466 z" /><path
           id="rect34"
           style="fill-opacity:0.999999;stroke-width:0.505475"
           d="m 200.33673,183.63788 h 3.57466 v 56.65157 h -3.57466 z" /><path
           id="rect35"
           style="fill:#f4c328;stroke-width:0.505475"
           d="m 203.91139,183.63788 h 3.57466 v 56.65157 h -3.57466 z" /><path
           id="rect36"
           style="fill-opacity:0.999999;stroke-width:0.505475"
           d="m 207.48605,183.63788 h 3.57466 v 56.65157 h -3.57466 z" /><path
           id="rect37"
           style="fill:#f4c328;stroke-width:0.505475"
           d="m 211.06071,183.63788 h 3.57466 v 56.65157 h -3.57466 z" /><path
           id="rect38"
           style="fill-opacity:0.999999;stroke-width:0.505475"
           d="m 214.63536,183.63788 h 3.57466 v 56.65157 h -3.57466 z" /><path
           id="rect39"
           style="fill:#f4c328;stroke-width:0.505475"
           d="m 218.21002,183.63788 h 3.57466 v 56.65157 h -3.57466 z" /></g></pattern><clipPath
       clipPathUnits="userSpaceOnUse"
       id="clipPath167"><rect
         style="fill:#00ff00;fill-opacity:0.576955;stroke:none;stroke-width:165.918"
         id="rect168"
         width="37.949368"
         height="39.6875"
         x="-39.31842"
         y="244.88358"
         transform="rotate(-41.099944)" /></clipPath><pattern
       patternUnits="userSpaceOnUse"
       width="143.43068"
       height="150"
       patternTransform="translate(270.72146,913.5959)"
       preserveAspectRatio="xMidYMid"
       id="pattern173"
       style="fill:#000000"
       inkscape:label="pattern173"><g
         id="g72"
         transform="matrix(2.848116,2.4845651,-2.4845651,2.848116,148.60505,-925.54422)"
         clip-path="url(#clipPath167)"><path
           id="rect41"
           style="fill-opacity:0.999999;stroke-width:0.505475"
           d="m 107.39558,183.63788 h 3.57466 v 56.65157 h -3.57466 z" /><path
           id="rect42"
           style="fill:#f4c328;stroke-width:0.505475"
           d="m 110.97024,183.63788 h 3.57466 v 56.65157 h -3.57466 z" /><path
           id="rect43"
           style="fill-opacity:0.999999;stroke-width:0.505475"
           d="m 114.5449,183.63788 h 3.57466 v 56.65157 h -3.57466 z" /><path
           id="rect44"
           style="fill:#f4c328;stroke-width:0.505475"
           d="m 118.11956,183.63788 h 3.57466 v 56.65157 h -3.57466 z" /><path
           id="rect45"
           style="fill-opacity:0.999999;stroke-width:0.505475"
           d="m 121.69422,183.63788 h 3.57466 v 56.65157 h -3.57466 z" /><path
           id="rect46"
           style="fill:#f4c328;stroke-width:0.505475"
           d="m 125.26888,183.63788 h 3.57466 v 56.65157 h -3.57466 z" /><path
           id="rect47"
           style="fill-opacity:0.999999;stroke-width:0.505475"
           d="m 128.84354,183.63788 h 3.57466 v 56.65157 h -3.57466 z" /><path
           id="rect48"
           style="fill:#f4c328;stroke-width:0.505475"
           d="m 132.4182,183.63788 h 3.57466 v 56.65157 h -3.57466 z" /><path
           id="rect49"
           style="fill-opacity:0.999999;stroke-width:0.505475"
           d="m 135.99286,183.63788 h 3.57466 v 56.65157 h -3.57466 z" /><path
           id="rect50"
           style="fill:#f4c328;stroke-width:0.505475"
           d="m 139.56752,183.63788 h 3.57466 v 56.65157 h -3.57466 z" /><path
           id="rect51"
           style="fill-opacity:0.999999;stroke-width:0.505475"
           d="m 143.14218,183.63788 h 3.57466 v 56.65157 h -3.57466 z" /><path
           id="rect52"
           style="fill:#f4c328;stroke-width:0.505475"
           d="m 146.71684,183.63788 h 3.57466 v 56.65157 h -3.57466 z" /><path
           id="rect53"
           style="fill-opacity:0.999999;stroke-width:0.505475"
           d="m 150.2915,183.63788 h 3.57466 v 56.65157 h -3.57466 z" /><path
           id="rect54"
           style="fill:#f4c328;stroke-width:0.505475"
           d="m 153.86617,183.63788 h 3.57465 v 56.65157 h -3.57465 z" /><path
           id="rect55"
           style="fill-opacity:0.999999;stroke-width:0.505475"
           d="m 157.44081,183.63788 h 3.57466 v 56.65157 h -3.57466 z" /><path
           id="rect56"
           style="fill:#f4c328;stroke-width:0.505475"
           d="m 161.01547,183.63788 h 3.57466 v 56.65157 h -3.57466 z" /><path
           id="rect57"
           style="fill-opacity:0.999999;stroke-width:0.505475"
           d="m 164.59013,183.63788 h 3.57466 v 56.65157 h -3.57466 z" /><path
           id="rect58"
           style="fill:#f4c328;stroke-width:0.505475"
           d="m 168.16479,183.63788 h 3.57466 v 56.65157 h -3.57466 z" /><path
           id="rect59"
           style="fill-opacity:0.999999;stroke-width:0.505475"
           d="m 171.73946,183.63788 h 3.57466 v 56.65157 h -3.57466 z" /><path
           id="rect60"
           style="fill:#f4c328;stroke-width:0.505475"
           d="m 175.31412,183.63788 h 3.57466 v 56.65157 h -3.57466 z" /><path
           id="rect61"
           style="fill-opacity:0.999999;stroke-width:0.505475"
           d="m 178.88878,183.63788 h 3.57466 v 56.65157 h -3.57466 z" /><path
           id="rect62"
           style="fill:#f4c328;stroke-width:0.505475"
           d="m 182.46344,183.63788 h 3.57466 v 56.65157 h -3.57466 z" /><path
           id="rect63"
           style="fill-opacity:0.999999;stroke-width:0.505475"
           d="m 186.03809,183.63788 h 3.57466 v 56.65157 h -3.57466 z" /><path
           id="rect64"
           style="fill:#f4c328;stroke-width:0.505475"
           d="m 189.61275,183.63788 h 3.57466 v 56.65157 h -3.57466 z" /><path
           id="rect65"
           style="fill-opacity:0.999999;stroke-width:0.505475"
           d="m 193.18741,183.63788 h 3.57466 v 56.65157 h -3.57466 z" /><path
           id="rect66"
           style="fill:#f4c328;stroke-width:0.505475"
           d="m 196.76207,183.63788 h 3.57466 v 56.65157 h -3.57466 z" /><path
           id="rect67"
           style="fill-opacity:0.999999;stroke-width:0.505475"
           d="m 200.33673,183.63788 h 3.57466 v 56.65157 h -3.57466 z" /><path
           id="rect68"
           style="fill:#f4c328;stroke-width:0.505475"
           d="m 203.91139,183.63788 h 3.57466 v 56.65157 h -3.57466 z" /><path
           id="rect69"
           style="fill-opacity:0.999999;stroke-width:0.505475"
           d="m 207.48605,183.63788 h 3.57466 v 56.65157 h -3.57466 z" /><path
           id="rect70"
           style="fill:#f4c328;stroke-width:0.505475"
           d="m 211.06071,183.63788 h 3.57466 v 56.65157 h -3.57466 z" /><path
           id="rect71"
           style="fill-opacity:0.999999;stroke-width:0.505475"
           d="m 214.63536,183.63788 h 3.57466 v 56.65157 h -3.57466 z" /><path
           id="rect72"
           style="fill:#f4c328;stroke-width:0.505475"
           d="m 218.21002,183.63788 h 3.57466 v 56.65157 h -3.57466 z" /></g></pattern><clipPath
       clipPathUnits="userSpaceOnUse"
       id="clipPath104"><rect
         style="fill:#00ff00;fill-opacity:0.576955;stroke-width:1.45374"
         id="rect104"
         width="37.949352"
         height="32.626675"
         x="-33.930958"
         y="256.64417"
         transform="rotate(-41.099944)" /></clipPath><pattern
       patternUnits="userSpaceOnUse"
       width="143.43062"
       height="123.31342"
       patternTransform="translate(81.381017,914.49905)"
       preserveAspectRatio="xMidYMid"
       id="pattern104"
       style="fill:#000000"
       inkscape:label="pattern104"><g
         id="g101"
         transform="matrix(2.848116,2.4845651,-2.4845651,2.848116,128.24299,-969.99369)"
         clip-path="url(#clipPath104)"><path
           id="rect4"
           style="fill-opacity:0.999999;stroke-width:0.505475"
           d="m 107.39558,183.63788 h 3.57466 v 56.65157 h -3.57466 z" /><path
           id="rect7"
           style="fill:#f4c328;stroke-width:0.505475"
           d="m 110.97024,183.63788 h 3.57466 v 56.65157 h -3.57466 z" /><path
           id="rect40"
           style="fill-opacity:0.999999;stroke-width:0.505475"
           d="m 114.5449,183.63788 h 3.57466 v 56.65157 h -3.57466 z" /><path
           id="rect73"
           style="fill:#f4c328;stroke-width:0.505475"
           d="m 118.11956,183.63788 h 3.57466 v 56.65157 h -3.57466 z" /><path
           id="rect74"
           style="fill-opacity:0.999999;stroke-width:0.505475"
           d="m 121.69422,183.63788 h 3.57466 v 56.65157 h -3.57466 z" /><path
           id="rect75"
           style="fill:#f4c328;stroke-width:0.505475"
           d="m 125.26888,183.63788 h 3.57466 v 56.65157 h -3.57466 z" /><path
           id="rect76"
           style="fill-opacity:0.999999;stroke-width:0.505475"
           d="m 128.84354,183.63788 h 3.57466 v 56.65157 h -3.57466 z" /><path
           id="rect77"
           style="fill:#f4c328;stroke-width:0.505475"
           d="m 132.4182,183.63788 h 3.57466 v 56.65157 h -3.57466 z" /><path
           id="rect78"
           style="fill-opacity:0.999999;stroke-width:0.505475"
           d="m 135.99286,183.63788 h 3.57466 v 56.65157 h -3.57466 z" /><path
           id="rect79"
           style="fill:#f4c328;stroke-width:0.505475"
           d="m 139.56752,183.63788 h 3.57466 v 56.65157 h -3.57466 z" /><path
           id="rect80"
           style="fill-opacity:0.999999;stroke-width:0.505475"
           d="m 143.14218,183.63788 h 3.57466 v 56.65157 h -3.57466 z" /><path
           id="rect81"
           style="fill:#f4c328;stroke-width:0.505475"
           d="m 146.71684,183.63788 h 3.57466 v 56.65157 h -3.57466 z" /><path
           id="rect82"
           style="fill-opacity:0.999999;stroke-width:0.505475"
           d="m 150.2915,183.63788 h 3.57466 v 56.65157 h -3.57466 z" /><path
           id="rect83"
           style="fill:#f4c328;stroke-width:0.505475"
           d="m 153.86617,183.63788 h 3.57465 v 56.65157 h -3.57465 z" /><path
           id="rect84"
           style="fill-opacity:0.999999;stroke-width:0.505475"
           d="m 157.44081,183.63788 h 3.57466 v 56.65157 h -3.57466 z" /><path
           id="rect85"
           style="fill:#f4c328;stroke-width:0.505475"
           d="m 161.01547,183.63788 h 3.57466 v 56.65157 h -3.57466 z" /><path
           id="rect86"
           style="fill-opacity:0.999999;stroke-width:0.505475"
           d="m 164.59013,183.63788 h 3.57466 v 56.65157 h -3.57466 z" /><path
           id="rect87"
           style="fill:#f4c328;stroke-width:0.505475"
           d="m 168.16479,183.63788 h 3.57466 v 56.65157 h -3.57466 z" /><path
           id="rect88"
           style="fill-opacity:0.999999;stroke-width:0.505475"
           d="m 171.73946,183.63788 h 3.57466 v 56.65157 h -3.57466 z" /><path
           id="rect89"
           style="fill:#f4c328;stroke-width:0.505475"
           d="m 175.31412,183.63788 h 3.57466 v 56.65157 h -3.57466 z" /><path
           id="rect90"
           style="fill-opacity:0.999999;stroke-width:0.505475"
           d="m 178.88878,183.63788 h 3.57466 v 56.65157 h -3.57466 z" /><path
           id="rect91"
           style="fill:#f4c328;stroke-width:0.505475"
           d="m 182.46344,183.63788 h 3.57466 v 56.65157 h -3.57466 z" /><path
           id="rect92"
           style="fill-opacity:0.999999;stroke-width:0.505475"
           d="m 186.03809,183.63788 h 3.57466 v 56.65157 h -3.57466 z" /><path
           id="rect93"
           style="fill:#f4c328;stroke-width:0.505475"
           d="m 189.61275,183.63788 h 3.57466 v 56.65157 h -3.57466 z" /><path
           id="rect94"
           style="fill-opacity:0.999999;stroke-width:0.505475"
           d="m 193.18741,183.63788 h 3.57466 v 56.65157 h -3.57466 z" /><path
           id="rect95"
           style="fill:#f4c328;stroke-width:0.505475"
           d="m 196.76207,183.63788 h 3.57466 v 56.65157 h -3.57466 z" /><path
           id="rect96"
           style="fill-opacity:0.999999;stroke-width:0.505475"
           d="m 200.33673,183.63788 h 3.57466 v 56.65157 h -3.57466 z" /><path
           id="rect97"
           style="fill:#f4c328;stroke-width:0.505475"
           d="m 203.91139,183.63788 h 3.57466 v 56.65157 h -3.57466 z" /><path
           id="rect98"
           style="fill-opacity:0.999999;stroke-width:0.505475"
           d="m 207.48605,183.63788 h 3.57466 v 56.65157 h -3.57466 z" /><path
           id="rect99"
           style="fill:#f4c328;stroke-width:0.505475"
           d="m 211.06071,183.63788 h 3.57466 v 56.65157 h -3.57466 z" /><path
           id="rect100"
           style="fill-opacity:0.999999;stroke-width:0.505475"
           d="m 214.63536,183.63788 h 3.57466 v 56.65157 h -3.57466 z" /><path
           id="rect101"
           style="fill:#f4c328;stroke-width:0.505475"
           d="m 218.21002,183.63788 h 3.57466 v 56.65157 h -3.57466 z" /></g></pattern><pattern
       patternUnits="userSpaceOnUse"
       width="550.86265"
       height="49.343055"
       patternTransform="translate(222.65539,745.78908)"
       preserveAspectRatio="xMidYMid"
       id="pattern1"
       inkscape:label="pattern1"><g
         id="g1"
         transform="matrix(3.7795276,0,0,3.7795276,-222.65539,-745.78908)"><path
           id="rect288"
           style="stroke-width:0.511028;stroke-linecap:round;stroke-linejoin:round"
           d="m 70.789922,197.32336 h 3.43258 l -11.879018,13.05535 h -3.43258 z" /><path
           id="rect289"
           style="fill:#f4c328;stroke-width:0.511028;stroke-linecap:round;stroke-linejoin:round"
           d="m 74.222482,197.32336 h 3.432574 l -11.879022,13.05535 h -3.43257 z" /><path
           id="rect290"
           style="stroke-width:0.511028;stroke-linecap:round;stroke-linejoin:round"
           d="m 77.655036,197.32336 h 3.43258 l -11.879022,13.05535 h -3.43258 z" /><path
           id="rect291"
           style="fill:#f4c328;stroke-width:0.511028;stroke-linecap:round;stroke-linejoin:round"
           d="m 81.087626,197.32336 h 3.43258 l -11.879022,13.05535 h -3.43258 z" /><path
           id="rect292"
           style="stroke-width:0.511028;stroke-linecap:round;stroke-linejoin:round"
           d="m 84.520186,197.32336 h 3.43257 l -11.879022,13.05535 h -3.43257 z" /><path
           id="rect293"
           style="fill:#f4c328;stroke-width:0.511028;stroke-linecap:round;stroke-linejoin:round"
           d="m 87.952736,197.32336 h 3.43258 l -11.87902,13.05535 h -3.432582 z" /><path
           id="rect294"
           style="stroke-width:0.511028;stroke-linecap:round;stroke-linejoin:round"
           d="m 91.385326,197.32336 h 3.43257 l -11.87902,13.05535 h -3.43257 z" /><path
           id="rect295"
           style="fill:#f4c328;stroke-width:0.511028;stroke-linecap:round;stroke-linejoin:round"
           d="m 94.817886,197.32336 h 3.43257 l -11.87902,13.05535 h -3.43257 z" /><path
           id="rect296"
           style="stroke-width:0.511028;stroke-linecap:round;stroke-linejoin:round"
           d="m 98.250436,197.32336 h 3.432584 l -11.879024,13.05535 h -3.43258 z" /><path
           id="rect297"
           style="fill:#f4c328;stroke-width:0.511028;stroke-linecap:round;stroke-linejoin:round"
           d="m 101.683,197.32336 h 3.43257 l -11.879024,13.05535 h -3.43257 z" /><path
           id="rect298"
           style="stroke-width:0.511028;stroke-linecap:round;stroke-linejoin:round"
           d="m 105.11558,197.32336 h 3.43258 l -11.879024,13.05535 h -3.43258 z" /><path
           id="rect299"
           style="fill:#f4c328;stroke-width:0.511028;stroke-linecap:round;stroke-linejoin:round"
           d="m 108.54814,197.32336 h 3.43258 l -11.87902,13.05535 h -3.432584 z" /><path
           id="rect300"
           style="stroke-width:0.511028;stroke-linecap:round;stroke-linejoin:round"
           d="m 111.9807,197.32336 h 3.43257 l -11.87902,13.05535 h -3.43257 z" /><path
           id="rect301"
           style="fill:#f4c328;stroke-width:0.511028;stroke-linecap:round;stroke-linejoin:round"
           d="m 115.41328,197.32336 h 3.43258 l -11.87902,13.05535 h -3.43258 z" /><path
           id="rect302"
           style="stroke-width:0.511028;stroke-linecap:round;stroke-linejoin:round"
           d="m 118.84584,197.32336 h 3.43257 l -11.87902,13.05535 h -3.43257 z" /><path
           id="rect303"
           style="fill:#f4c328;stroke-width:0.511028;stroke-linecap:round;stroke-linejoin:round"
           d="m 122.2784,197.32336 h 3.43257 l -11.87902,13.05535 h -3.43257 z" /><path
           id="rect304"
           style="stroke-width:0.511028;stroke-linecap:round;stroke-linejoin:round"
           d="m 125.71098,197.32336 h 3.43258 l -11.87902,13.05535 h -3.43258 z" /><path
           id="rect305"
           style="fill:#f4c328;stroke-width:0.511028;stroke-linecap:round;stroke-linejoin:round"
           d="m 129.14354,197.32336 h 3.43257 l -11.87902,13.05535 h -3.43257 z" /><path
           id="rect306"
           style="stroke-width:0.511028;stroke-linecap:round;stroke-linejoin:round"
           d="m 132.5761,197.32336 h 3.43257 l -11.87902,13.05535 h -3.43257 z" /><path
           id="rect307"
           style="fill:#f4c328;stroke-width:0.511028;stroke-linecap:round;stroke-linejoin:round"
           d="m 136.00868,197.32336 h 3.43258 l -11.87902,13.05535 h -3.43258 z" /><path
           id="rect308"
           style="stroke-width:0.511028;stroke-linecap:round;stroke-linejoin:round"
           d="m 139.44124,197.32336 h 3.43257 l -11.87902,13.05535 h -3.43257 z" /><path
           id="rect309"
           style="fill:#f4c328;stroke-width:0.511028;stroke-linecap:round;stroke-linejoin:round"
           d="m 142.87379,197.32336 h 3.43258 l -11.87902,13.05535 h -3.43258 z" /><path
           id="rect310"
           style="stroke-width:0.511028;stroke-linecap:round;stroke-linejoin:round"
           d="m 146.30635,197.32336 h 3.43257 l -11.87902,13.05535 h -3.43257 z" /><path
           id="rect311"
           style="fill:#f4c328;stroke-width:0.511028;stroke-linecap:round;stroke-linejoin:round"
           d="m 149.73894,197.32336 h 3.43257 l -11.87902,13.05535 h -3.43257 z" /><path
           id="rect312"
           style="stroke-width:0.511028;stroke-linecap:round;stroke-linejoin:round"
           d="m 153.17149,197.32336 h 3.43258 l -11.87902,13.05535 h -3.43258 z" /><path
           id="rect313"
           style="fill:#f4c328;stroke-width:0.511028;stroke-linecap:round;stroke-linejoin:round"
           d="m 156.60405,197.32336 h 3.43257 l -11.87902,13.05535 h -3.43257 z" /><path
           id="rect314"
           style="stroke-width:0.511028;stroke-linecap:round;stroke-linejoin:round"
           d="m 160.03664,197.32336 h 3.43257 l -11.87902,13.05535 h -3.43257 z" /><path
           id="rect315"
           style="fill:#f4c328;stroke-width:0.511028;stroke-linecap:round;stroke-linejoin:round"
           d="m 163.46919,197.32336 h 3.43258 l -11.87902,13.05535 h -3.43258 z" /><path
           id="rect316"
           style="stroke-width:0.511028;stroke-linecap:round;stroke-linejoin:round"
           d="m 166.90175,197.32336 h 3.43257 l -11.87902,13.05535 h -3.43257 z" /><path
           id="rect317"
           style="fill:#f4c328;stroke-width:0.511028;stroke-linecap:round;stroke-linejoin:round"
           d="m 170.33433,197.32336 h 3.43258 l -11.87902,13.05535 h -3.43258 z" /><path
           id="rect318"
           style="stroke-width:0.511028;stroke-linecap:round;stroke-linejoin:round"
           d="m 173.76689,197.32336 h 3.43258 l -11.87902,13.05535 h -3.43258 z" /><path
           id="rect319"
           style="fill:#f4c328;stroke-width:0.511028;stroke-linecap:round;stroke-linejoin:round"
           d="m 177.19945,197.32336 h 3.43257 L 168.753,210.37871 h -3.43257 z" /><path
           id="rect320"
           style="stroke-width:0.511028;stroke-linecap:round;stroke-linejoin:round"
           d="m 180.632,197.32336 h 3.43258 l -11.87902,13.05535 h -3.43258 z" /><path
           id="rect321"
           style="fill:#f4c328;stroke-width:0.511028;stroke-linecap:round;stroke-linejoin:round"
           d="m 184.06459,197.32336 h 3.43257 l -11.87902,13.05535 h -3.43257 z" /><path
           id="rect322"
           style="stroke-width:0.511028;stroke-linecap:round;stroke-linejoin:round"
           d="m 187.49715,197.32336 h 3.43257 l -11.87902,13.05535 h -3.43257 z" /><path
           id="rect323"
           style="fill:#f4c328;stroke-width:0.511028;stroke-linecap:round;stroke-linejoin:round"
           d="m 190.9297,197.32336 h 3.43258 l -11.87902,13.05535 h -3.43258 z" /><path
           id="rect324"
           style="stroke-width:0.511028;stroke-linecap:round;stroke-linejoin:round"
           d="m 194.36229,197.32336 h 3.43257 l -11.87902,13.05535 h -3.43257 z" /><path
           id="rect325"
           style="fill:#f4c328;stroke-width:0.511028;stroke-linecap:round;stroke-linejoin:round"
           d="m 197.79485,197.32336 h 3.43257 l -11.87902,13.05535 h -3.43257 z" /><path
           id="rect326"
           style="stroke-width:0.511028;stroke-linecap:round;stroke-linejoin:round"
           d="m 201.2274,197.32336 h 3.43258 l -11.87902,13.05535 h -3.43258 z" /></g></pattern><pattern
       patternUnits="userSpaceOnUse"
       width="550.86266"
       height="49.343072"
       patternTransform="translate(109.38533,624.03464)"
       id="pattern3828"><g
         id="g3242"
         transform="matrix(4.4075274,0,0,4.4075274,-530.39983,-806.1358)"><rect
           style="fill:#000000;fill-opacity:1;stroke:none;stroke-width:0.509537;stroke-linecap:round;stroke-linejoin:round"
           id="rect3164"
           width="2.9434893"
           height="15.135919"
           x="296.94589"
           y="247.28104"
           transform="matrix(1,0,-0.67299901,0.73964338,0,0)" /><rect
           style="fill:#f4c328;fill-opacity:1;stroke:none;stroke-width:0.509537;stroke-linecap:round;stroke-linejoin:round"
           id="rect3166"
           width="2.9434893"
           height="15.135919"
           x="299.88937"
           y="247.28104"
           transform="matrix(1,0,-0.67299901,0.73964338,0,0)" /><rect
           style="fill:#000000;fill-opacity:1;stroke:none;stroke-width:0.509537;stroke-linecap:round;stroke-linejoin:round"
           id="rect3168"
           width="2.9434893"
           height="15.135919"
           x="302.83286"
           y="247.28104"
           transform="matrix(1,0,-0.67299901,0.73964338,0,0)" /><rect
           style="fill:#f4c328;fill-opacity:1;stroke:none;stroke-width:0.509537;stroke-linecap:round;stroke-linejoin:round"
           id="rect3170"
           width="2.9434893"
           height="15.135919"
           x="305.77634"
           y="247.28104"
           transform="matrix(1,0,-0.67299901,0.73964338,0,0)" /><rect
           style="fill:#000000;fill-opacity:1;stroke:none;stroke-width:0.509537;stroke-linecap:round;stroke-linejoin:round"
           id="rect3172"
           width="2.9434893"
           height="15.135919"
           x="308.71982"
           y="247.28104"
           transform="matrix(1,0,-0.67299901,0.73964338,0,0)" /><rect
           style="fill:#f4c328;fill-opacity:1;stroke:none;stroke-width:0.509537;stroke-linecap:round;stroke-linejoin:round"
           id="rect3174"
           width="2.9434893"
           height="15.135919"
           x="311.6633"
           y="247.28104"
           transform="matrix(1,0,-0.67299901,0.73964338,0,0)" /><rect
           style="fill:#000000;fill-opacity:1;stroke:none;stroke-width:0.509537;stroke-linecap:round;stroke-linejoin:round"
           id="rect3176"
           width="2.9434893"
           height="15.135919"
           x="314.60678"
           y="247.28104"
           transform="matrix(1,0,-0.67299901,0.73964338,0,0)" /><rect
           style="fill:#f4c328;fill-opacity:1;stroke:none;stroke-width:0.509537;stroke-linecap:round;stroke-linejoin:round"
           id="rect3178"
           width="2.9434893"
           height="15.135919"
           x="317.55026"
           y="247.28104"
           transform="matrix(1,0,-0.67299901,0.73964338,0,0)" /><rect
           style="fill:#000000;fill-opacity:1;stroke:none;stroke-width:0.509537;stroke-linecap:round;stroke-linejoin:round"
           id="rect3180"
           width="2.9434893"
           height="15.135919"
           x="320.49374"
           y="247.28104"
           transform="matrix(1,0,-0.67299901,0.73964338,0,0)" /><rect
           style="fill:#f4c328;fill-opacity:1;stroke:none;stroke-width:0.509537;stroke-linecap:round;stroke-linejoin:round"
           id="rect3182"
           width="2.9434893"
           height="15.135919"
           x="323.43723"
           y="247.28104"
           transform="matrix(1,0,-0.67299901,0.73964338,0,0)" /><rect
           style="fill:#000000;fill-opacity:1;stroke:none;stroke-width:0.509537;stroke-linecap:round;stroke-linejoin:round"
           id="rect3184"
           width="2.9434893"
           height="15.135919"
           x="326.38071"
           y="247.28104"
           transform="matrix(1,0,-0.67299901,0.73964338,0,0)" /><rect
           style="fill:#f4c328;fill-opacity:1;stroke:none;stroke-width:0.509537;stroke-linecap:round;stroke-linejoin:round"
           id="rect3186"
           width="2.9434893"
           height="15.135919"
           x="329.32419"
           y="247.28104"
           transform="matrix(1,0,-0.67299901,0.73964338,0,0)" /><rect
           style="fill:#000000;fill-opacity:1;stroke:none;stroke-width:0.509537;stroke-linecap:round;stroke-linejoin:round"
           id="rect3188"
           width="2.9434893"
           height="15.135919"
           x="332.26767"
           y="247.28104"
           transform="matrix(1,0,-0.67299901,0.73964338,0,0)" /><rect
           style="fill:#f4c328;fill-opacity:1;stroke:none;stroke-width:0.509537;stroke-linecap:round;stroke-linejoin:round"
           id="rect3190"
           width="2.9434893"
           height="15.135919"
           x="335.21115"
           y="247.28104"
           transform="matrix(1,0,-0.67299901,0.73964338,0,0)" /><rect
           style="fill:#000000;fill-opacity:1;stroke:none;stroke-width:0.509537;stroke-linecap:round;stroke-linejoin:round"
           id="rect3192"
           width="2.9434893"
           height="15.135919"
           x="338.15463"
           y="247.28104"
           transform="matrix(1,0,-0.67299901,0.73964338,0,0)" /><rect
           style="fill:#f4c328;fill-opacity:1;stroke:none;stroke-width:0.509537;stroke-linecap:round;stroke-linejoin:round"
           id="rect3194"
           width="2.9434893"
           height="15.135919"
           x="341.09811"
           y="247.28104"
           transform="matrix(1,0,-0.67299901,0.73964338,0,0)" /><rect
           style="fill:#000000;fill-opacity:1;stroke:none;stroke-width:0.509537;stroke-linecap:round;stroke-linejoin:round"
           id="rect3196"
           width="2.9434893"
           height="15.135919"
           x="344.0416"
           y="247.28104"
           transform="matrix(1,0,-0.67299901,0.73964338,0,0)" /><rect
           style="fill:#f4c328;fill-opacity:1;stroke:none;stroke-width:0.509537;stroke-linecap:round;stroke-linejoin:round"
           id="rect3198"
           width="2.9434893"
           height="15.135919"
           x="346.98508"
           y="247.28104"
           transform="matrix(1,0,-0.67299901,0.73964338,0,0)" /><rect
           style="fill:#000000;fill-opacity:1;stroke:none;stroke-width:0.509537;stroke-linecap:round;stroke-linejoin:round"
           id="rect3200"
           width="2.9434893"
           height="15.135919"
           x="349.92856"
           y="247.28104"
           transform="matrix(1,0,-0.67299901,0.73964338,0,0)" /><rect
           style="fill:#f4c328;fill-opacity:1;stroke:none;stroke-width:0.509537;stroke-linecap:round;stroke-linejoin:round"
           id="rect3202"
           width="2.9434893"
           height="15.135919"
           x="352.87204"
           y="247.28104"
           transform="matrix(1,0,-0.67299901,0.73964338,0,0)" /><rect
           style="fill:#000000;fill-opacity:1;stroke:none;stroke-width:0.509537;stroke-linecap:round;stroke-linejoin:round"
           id="rect3204"
           width="2.9434893"
           height="15.135919"
           x="355.81552"
           y="247.28104"
           transform="matrix(1,0,-0.67299901,0.73964338,0,0)" /><rect
           style="fill:#f4c328;fill-opacity:1;stroke:none;stroke-width:0.509537;stroke-linecap:round;stroke-linejoin:round"
           id="rect3206"
           width="2.9434893"
           height="15.135919"
           x="358.759"
           y="247.28104"
           transform="matrix(1,0,-0.67299901,0.73964338,0,0)" /><rect
           style="fill:#000000;fill-opacity:1;stroke:none;stroke-width:0.509537;stroke-linecap:round;stroke-linejoin:round"
           id="rect3208"
           width="2.9434893"
           height="15.135919"
           x="361.70248"
           y="247.28104"
           transform="matrix(1,0,-0.67299901,0.73964338,0,0)" /><rect
           style="fill:#f4c328;fill-opacity:1;stroke:none;stroke-width:0.509537;stroke-linecap:round;stroke-linejoin:round"
           id="rect3210"
           width="2.9434893"
           height="15.135919"
           x="364.64597"
           y="247.28104"
           transform="matrix(1,0,-0.67299901,0.73964338,0,0)" /><rect
           style="fill:#000000;fill-opacity:1;stroke:none;stroke-width:0.509537;stroke-linecap:round;stroke-linejoin:round"
           id="rect3212"
           width="2.9434893"
           height="15.135919"
           x="367.58945"
           y="247.28104"
           transform="matrix(1,0,-0.67299901,0.73964338,0,0)" /><rect
           style="fill:#f4c328;fill-opacity:1;stroke:none;stroke-width:0.509537;stroke-linecap:round;stroke-linejoin:round"
           id="rect3214"
           width="2.9434893"
           height="15.135919"
           x="370.53293"
           y="247.28104"
           transform="matrix(1,0,-0.67299901,0.73964338,0,0)" /><rect
           style="fill:#000000;fill-opacity:1;stroke:none;stroke-width:0.509537;stroke-linecap:round;stroke-linejoin:round"
           id="rect3216"
           width="2.9434893"
           height="15.135919"
           x="373.47641"
           y="247.28104"
           transform="matrix(1,0,-0.67299901,0.73964338,0,0)" /><rect
           style="fill:#f4c328;fill-opacity:1;stroke:none;stroke-width:0.509537;stroke-linecap:round;stroke-linejoin:round"
           id="rect3218"
           width="2.9434893"
           height="15.135919"
           x="376.41989"
           y="247.28104"
           transform="matrix(1,0,-0.67299901,0.73964338,0,0)" /><rect
           style="fill:#000000;fill-opacity:1;stroke:none;stroke-width:0.509537;stroke-linecap:round;stroke-linejoin:round"
           id="rect3220"
           width="2.9434893"
           height="15.135919"
           x="379.36337"
           y="247.28104"
           transform="matrix(1,0,-0.67299901,0.73964338,0,0)" /><rect
           style="fill:#f4c328;fill-opacity:1;stroke:none;stroke-width:0.509537;stroke-linecap:round;stroke-linejoin:round"
           id="rect3222"
           width="2.9434893"
           height="15.135919"
           x="382.30685"
           y="247.28104"
           transform="matrix(1,0,-0.67299901,0.73964338,0,0)" /><rect
           style="fill:#000000;fill-opacity:1;stroke:none;stroke-width:0.509537;stroke-linecap:round;stroke-linejoin:round"
           id="rect3224"
           width="2.9434893"
           height="15.135919"
           x="385.25034"
           y="247.28104"
           transform="matrix(1,0,-0.67299901,0.73964338,0,0)" /><rect
           style="fill:#f4c328;fill-opacity:1;stroke:none;stroke-width:0.509537;stroke-linecap:round;stroke-linejoin:round"
           id="rect3226"
           width="2.9434893"
           height="15.135919"
           x="388.19382"
           y="247.28104"
           transform="matrix(1,0,-0.67299901,0.73964338,0,0)" /><rect
           style="fill:#000000;fill-opacity:1;stroke:none;stroke-width:0.509537;stroke-linecap:round;stroke-linejoin:round"
           id="rect3228"
           width="2.9434893"
           height="15.135919"
           x="391.1373"
           y="247.28104"
           transform="matrix(1,0,-0.67299901,0.73964338,0,0)" /><rect
           style="fill:#f4c328;fill-opacity:1;stroke:none;stroke-width:0.509537;stroke-linecap:round;stroke-linejoin:round"
           id="rect3230"
           width="2.9434893"
           height="15.135919"
           x="394.08078"
           y="247.28104"
           transform="matrix(1,0,-0.67299901,0.73964338,0,0)" /><rect
           style="fill:#000000;fill-opacity:1;stroke:none;stroke-width:0.509537;stroke-linecap:round;stroke-linejoin:round"
           id="rect3232"
           width="2.9434893"
           height="15.135919"
           x="397.02426"
           y="247.28104"
           transform="matrix(1,0,-0.67299901,0.73964338,0,0)" /><rect
           style="fill:#f4c328;fill-opacity:1;stroke:none;stroke-width:0.509537;stroke-linecap:round;stroke-linejoin:round"
           id="rect3234"
           width="2.9434893"
           height="15.135919"
           x="399.96774"
           y="247.28104"
           transform="matrix(1,0,-0.67299901,0.73964338,0,0)" /><rect
           style="fill:#000000;fill-opacity:1;stroke:none;stroke-width:0.509537;stroke-linecap:round;stroke-linejoin:round"
           id="rect3236"
           width="2.9434893"
           height="15.135919"
           x="402.91122"
           y="247.28104"
           transform="matrix(1,0,-0.67299901,0.73964338,0,0)" /><rect
           style="fill:#f4c328;fill-opacity:1;stroke:none;stroke-width:0.509537;stroke-linecap:round;stroke-linejoin:round"
           id="rect3238"
           width="2.9434893"
           height="15.135919"
           x="405.85471"
           y="247.28104"
           transform="matrix(1,0,-0.67299901,0.73964338,0,0)" /><rect
           style="fill:#000000;fill-opacity:1;stroke:none;stroke-width:0.509537;stroke-linecap:round;stroke-linejoin:round"
           id="rect3240"
           width="2.9434893"
           height="15.135919"
           x="408.79819"
           y="247.28104"
           transform="matrix(1,0,-0.67299901,0.73964338,0,0)" /></g></pattern></defs><g
     inkscape:label="Layer 1"
     inkscape:groupmode="layer"
     id="layer1"><rect
       style="fill:#f4c328;fill-opacity:1;stroke:none;stroke-width:2.42186;stroke-dasharray:none;stroke-opacity:1"
       id="rect2"
       width="118.53333"
       height="65.616669"
       x="5.0862627e-07"
       y="-2.0345053e-06"
       ry="6.0398121" /><g
       id="text102"
       style="font-size:9.17222px;line-height:0.95;font-family:Gidugu;-inkscape-font-specification:Gidugu;white-space:pre-wrap;fill-opacity:0.837715;stroke-width:0.264583"
       aria-label="This theme, inspired by Windows XP (© Microsoft), is an open-source, non-commercial, educational project; use it at your own risk for non-commercial purposes."
       transform="translate(-47.724471,-91.232758)"><path
         d="m 52.979884,117.87369 v -3.79456 h -1.354616 v -0.69363 h 3.62319 v 0.69363 h -1.346456 v 3.79456 z m 3.598704,-4.48819 v 1.67287 q 0.424338,-0.48962 1.011882,-0.48962 0.652827,0 0.889477,0.35906 0.23665,0.35089 0.23665,1.03636 v 1.90952 H 57.84344 v -1.70551 q 0,-0.59571 -0.114244,-0.79972 -0.106085,-0.21217 -0.424338,-0.21217 -0.72627,0 -0.72627,1.10165 v 1.61575 h -0.873156 v -4.48819 z m 2.815305,0.72627 v -0.72627 h 0.873156 v 0.72627 z m 0,3.76192 v -3.22334 h 0.873156 v 3.22334 z m 1.321964,-0.88132 0.864996,-0.13872 q 0.122405,0.53042 0.709949,0.53042 0.628346,0 0.628346,-0.39986 0,-0.24481 -0.367215,-0.32641 -1.21589,-0.26929 -1.477021,-0.52226 -0.252971,-0.26114 -0.252971,-0.61203 0,-0.97108 1.395418,-0.97108 1.21589,0 1.45254,0.79971 l -0.824194,0.14689 q -0.106084,-0.39986 -0.612025,-0.39986 -0.587545,0 -0.587545,0.31826 0,0.26113 0.938439,0.4733 0.685469,0.14688 0.9466,0.36721 0.26113,0.21217 0.26113,0.60387 0,0.50594 -0.440658,0.79155 -0.432498,0.27745 -1.060844,0.27745 -1.330135,0 -1.574945,-0.93844 z m 6.887308,-2.3665 v 0.61203 H 67.01562 v 1.3791 q 0,0.41617 0.04896,0.54674 0.04896,0.1224 0.179528,0.1224 0.122405,0 0.367215,-0.0898 l 0.06528,0.60386 q -0.301933,0.13057 -0.693629,0.13057 -0.554903,0 -0.70995,-0.26113 -0.146886,-0.26929 -0.146886,-0.93844 v -1.49334 h -0.399856 v -0.61203 h 0.399856 v -0.66098 l 0.889477,-0.50595 v 1.16693 z m 1.354601,-1.24037 v 1.67287 q 0.424337,-0.48962 1.011882,-0.48962 0.652827,0 0.889477,0.35906 0.236649,0.35089 0.236649,1.03636 v 1.90952 h -0.873156 v -1.70551 q 0,-0.59571 -0.114245,-0.79972 -0.106084,-0.21217 -0.424337,-0.21217 -0.72627,0 -0.72627,1.10165 v 1.61575 H 68.08461 v -4.48819 z m 4.773784,3.49263 0.864996,0.14688 q -0.318253,0.9058 -1.419899,0.9058 -0.864996,0 -1.240371,-0.48146 -0.367215,-0.48962 -0.367215,-1.18325 0,-0.75075 0.399856,-1.23221 0.408017,-0.48146 1.109806,-0.48146 1.583106,0 1.583106,1.90136 h -2.203292 q 0.04896,0.9058 0.726271,0.9058 0.416177,0 0.546742,-0.48146 z m 0.06528,-0.88132 q -0.03264,-0.85684 -0.660988,-0.85684 -0.644666,0 -0.644666,0.85684 z m 1.362764,-1.34646 h 0.807873 v 0.4325 q 0.416177,-0.5141 1.036363,-0.5141 0.644667,0 0.930279,0.5141 0.416177,-0.5141 1.011882,-0.5141 1.077164,0 1.077164,1.23221 v 2.07273 h -0.873156 v -1.8524 q 0,-0.58754 -0.146886,-0.72627 -0.138726,-0.13873 -0.318253,-0.13873 -0.652827,0 -0.652827,1.16693 v 1.55047 H 77.15888 v -1.7708 q 0,-0.41617 -0.07344,-0.6773 -0.07344,-0.2693 -0.383535,-0.2693 -0.269292,0 -0.4733,0.18769 -0.195848,0.18769 -0.195848,0.96292 v 1.56679 h -0.873156 z m 7.491185,2.22778 0.864995,0.14688 q -0.318253,0.9058 -1.419898,0.9058 -0.864996,0 -1.240372,-0.48146 -0.367215,-0.48962 -0.367215,-1.18325 0,-0.75075 0.399857,-1.23221 0.408016,-0.48146 1.109806,-0.48146 1.583105,0 1.583105,1.90136 h -2.203291 q 0.04896,0.9058 0.72627,0.9058 0.416177,0 0.546743,-0.48146 z m 0.06528,-0.88132 q -0.03264,-0.85684 -0.660987,-0.85684 -0.644667,0 -0.644667,0.85684 z m 1.54229,2.3257 0.106084,0.008 q 0.138726,0 0.23665,-0.0571 0.122405,-0.0571 0.122405,-0.204 0,-0.0408 -0.0082,-0.0653 -0.0408,0.008 -0.130566,0.008 -0.187688,0 -0.277451,-0.10608 -0.08976,-0.0979 -0.08976,-0.26113 0,-0.24481 0.163207,-0.36722 0.130565,-0.10608 0.293772,-0.10608 0.285612,0 0.448818,0.19585 0.114245,0.15504 0.114245,0.40801 0,0.29378 -0.163207,0.48146 -0.163206,0.19585 -0.416177,0.19585 -0.138726,0 -0.220329,-0.0245 -0.130565,-0.0326 -0.179527,-0.10608 z m 3.394687,-4.21074 v -0.72627 h 0.873157 v 0.72627 z m 0,3.76192 v -3.22334 h 0.873157 v 3.22334 z m 4.569782,0 h -0.873156 v -1.64839 q 0,-0.60387 -0.114245,-0.83236 -0.106084,-0.23665 -0.424338,-0.23665 -0.285611,0 -0.505941,0.17953 -0.220329,0.17137 -0.220329,1.08533 v 1.45254 h -0.873156 v -3.22334 h 0.807874 v 0.4733 q 0.432498,-0.5549 1.101645,-0.5549 1.101646,0 1.101646,1.28933 z m 0.440647,-0.88132 0.864995,-0.13872 q 0.122406,0.53042 0.70995,0.53042 0.628346,0 0.628346,-0.39986 0,-0.24481 -0.367215,-0.32641 -1.215891,-0.26929 -1.477022,-0.52226 -0.25297,-0.26114 -0.25297,-0.61203 0,-0.97108 1.395418,-0.97108 1.21589,0 1.45254,0.79971 l -0.824194,0.14689 q -0.106085,-0.39986 -0.612025,-0.39986 -0.587545,0 -0.587545,0.31826 0,0.26113 0.938439,0.4733 0.685468,0.14688 0.946599,0.36721 0.261131,0.21217 0.261131,0.60387 0,0.50594 -0.440658,0.79155 -0.432498,0.27745 -1.060844,0.27745 -1.330135,0 -1.574945,-0.93844 z m 3.647654,-2.63579 h 0.816034 v 0.46514 q 0.342734,-0.53858 1.036363,-0.53858 0.669148,0 1.020042,0.49778 0.350895,0.48962 0.350895,1.16693 0,0.72627 -0.367215,1.21589 -0.367216,0.48962 -1.011882,0.48962 -0.530422,0 -0.971081,-0.4733 v 1.65655 h -0.873156 z m 0.864996,1.55863 q 0,1.12612 0.758912,1.12612 0.701789,0 0.701789,-1.08532 0,-1.06085 -0.71811,-1.06085 -0.742591,0 -0.742591,1.02005 z m 2.896925,-1.80344 v -0.72627 h 0.87315 v 0.72627 z m 0,3.76192 v -3.22334 h 0.87315 v 3.22334 z m 2.39912,0 h -0.87315 v -3.22334 h 0.81603 v 0.44882 q 0.32641,-0.53042 0.75075,-0.53042 0.3101,0 0.56307,0.15505 l -0.25297,0.70995 q -0.23665,-0.15505 -0.42434,-0.15505 -0.31826,0 -0.44882,0.32641 -0.13057,0.31826 -0.13057,1.28118 z m 3.51709,-0.99556 0.865,0.14688 q -0.31825,0.9058 -1.4199,0.9058 -0.86499,0 -1.24037,-0.48146 -0.36722,-0.48962 -0.36722,-1.18325 0,-0.75075 0.39986,-1.23221 0.40802,-0.48146 1.10981,-0.48146 1.5831,0 1.5831,1.90136 h -2.20329 q 0.049,0.9058 0.72627,0.9058 0.41618,0 0.54674,-0.48146 z m 0.0653,-0.88132 q -0.0326,-0.85684 -0.66099,-0.85684 -0.64467,0 -0.64467,0.85684 z m 4.48817,1.8524 h -0.81603 v -0.46514 q -0.3917,0.54674 -1.03638,0.54674 -0.63649,0 -1.01188,-0.48146 -0.36721,-0.48962 -0.36721,-1.21589 0,-0.76707 0.35905,-1.22405 0.35906,-0.45698 1.0282,-0.45698 0.57123,0 0.96292,0.44882 v -1.63207 h 0.88132 z m -2.34203,-1.68103 q 0,1.15876 0.7426,1.15876 0.33458,0 0.53043,-0.30193 0.19584,-0.30193 0.19584,-0.77523 0,-1.10981 -0.73443,-1.10981 -0.73444,0 -0.73444,1.02821 z m 4.60242,1.68103 v -4.48003 h 0.87315 v 1.63207 q 0.3917,-0.44882 0.97108,-0.44882 0.66915,0 1.0282,0.46514 0.35906,0.45698 0.35906,1.18325 0,0.67731 -0.34274,1.20773 -0.33457,0.52226 -1.03636,0.52226 -0.65283,0 -1.03636,-0.54674 v 0.46514 z m 0.86499,-1.68103 q 0,1.15876 0.76708,1.15876 0.69363,0 0.69363,-1.07716 0,-1.10981 -0.71811,-1.10981 -0.7426,0 -0.7426,1.02821 z m 2.58681,-1.82792 h 0.92213 l 0.77522,2.31754 0.76708,-2.31754 h 0.89763 l -1.36278,3.68847 q -0.31009,0.87316 -1.2322,0.87316 -0.26113,0 -0.49779,-0.0571 l -0.0653,-0.58755 q 0.204,0.0326 0.35904,0.0326 0.48964,0 0.67732,-0.68546 z m 6.17737,3.53343 -1.069,-4.48819 h 0.93844 l 0.68547,3.10909 0.82419,-3.10909 h 1.10981 l 0.79155,3.15805 0.69363,-3.15805 h 0.92212 l -1.09349,4.48819 h -0.99556 l -0.88948,-3.37838 -0.9058,3.37838 z m 5.27157,-3.76192 v -0.72627 h 0.87315 v 0.72627 z m 0,3.76192 v -3.22334 h 0.87315 v 3.22334 z m 4.56978,0 h -0.87316 v -1.64839 q 0,-0.60387 -0.11424,-0.83236 -0.10609,-0.23665 -0.42434,-0.23665 -0.28561,0 -0.50594,0.17953 -0.22033,0.17137 -0.22033,1.08533 v 1.45254 h -0.87316 v -3.22334 h 0.80788 v 0.4733 q 0.43249,-0.5549 1.10164,-0.5549 1.10165,0 1.10165,1.28933 z m 3.75374,-0.0245 h -0.81603 v -0.46514 q -0.3917,0.54674 -1.03637,0.54674 -0.6365,0 -1.01188,-0.48146 -0.36721,-0.48962 -0.36721,-1.21589 0,-0.76707 0.35905,-1.22405 0.35906,-0.45698 1.0282,-0.45698 0.57123,0 0.96292,0.44882 v -1.63207 h 0.88132 z m -2.34202,-1.68103 q 0,1.15876 0.74259,1.15876 0.33458,0 0.53043,-0.30193 0.19584,-0.30193 0.19584,-0.77523 0,-1.10981 -0.73443,-1.10981 -0.73443,0 -0.73443,1.02821 z m 2.85611,0.0245 q 0,-0.66915 0.46514,-1.15061 0.46514,-0.48962 1.23221,-0.48962 0.77523,0 1.24037,0.48146 0.4733,0.4733 0.4733,1.19957 0,0.71811 -0.4733,1.20773 -0.46514,0.48962 -1.23221,0.48962 -0.79155,0 -1.24853,-0.45698 -0.45697,-0.45698 -0.45698,-1.28117 z m 0.88948,0.049 q 0,0.4733 0.22033,0.76707 0.22849,0.28561 0.58754,0.28561 0.37538,0 0.58754,-0.28561 0.22033,-0.29377 0.22033,-0.77523 0,-0.48146 -0.22033,-0.75891 -0.21216,-0.28561 -0.58754,-0.28561 -0.35905,0 -0.58754,0.29377 -0.22033,0.28561 -0.22033,0.75891 z m 3.72926,1.63207 -1.02005,-3.22334 h 0.84052 l 0.61202,2.13801 0.56307,-2.13801 h 0.85683 l 0.54675,2.13801 0.62018,-2.13801 h 0.85685 L 144,117.87373 h -0.85684 l -0.55491,-2.09721 -0.56306,2.09721 z m 4.02303,-0.88132 0.865,-0.13872 q 0.1224,0.53042 0.70995,0.53042 0.62834,0 0.62834,-0.39986 0,-0.24481 -0.36721,-0.32641 -1.21589,-0.26929 -1.47703,-0.52226 -0.25297,-0.26114 -0.25297,-0.61203 0,-0.97108 1.39542,-0.97108 1.21589,0 1.45254,0.79971 l -0.82419,0.14689 q -0.10609,-0.39986 -0.61203,-0.39986 -0.58754,0 -0.58754,0.31826 0,0.26113 0.93845,0.4733 0.68547,0.14688 0.94659,0.36721 0.26114,0.21217 0.26114,0.60387 0,0.50594 -0.44067,0.79155 -0.4325,0.27745 -1.06084,0.27745 -1.33014,0 -1.57495,-0.93844 z m 4.94515,0.88132 1.53415,-2.33386 -1.38725,-2.15433 h 1.05268 l 0.89764,1.45254 0.88131,-1.45254 h 1.04453 l -1.39542,2.17881 1.53414,2.30938 H 153.213 l -1.00372,-1.55863 -1.00373,1.55863 z m 4.59426,0 v -4.48819 h 1.47704 q 0.7589,0 1.11796,0.0734 0.35906,0.0653 0.62835,0.40802 0.26929,0.34274 0.26929,0.88132 0,0.48146 -0.21217,0.80787 -0.20401,0.31825 -0.56306,0.45698 -0.3509,0.13873 -1.19957,0.13873 h -0.59571 v 1.72183 z m 0.92212,-3.79456 v 1.3791 h 0.50595 q 0.60387,0 0.85684,-0.13873 0.26113,-0.13872 0.26113,-0.5549 0,-0.39986 -0.23665,-0.53858 -0.22849,-0.14689 -0.93844,-0.14689 z"
         id="path2" /><path
         d="m 53.730635,127.77054 q -0.0816,0.0327 -0.220329,0.0327 -0.685468,0 -1.101646,-0.79156 -0.408017,-0.78339 -0.408017,-2.08088 0,-1.41174 0.399857,-2.18697 0.399857,-0.77524 1.117966,-0.77524 0.114245,0 0.195848,0.0163 v 0.3917 q -0.48962,0 -0.709949,0.62835 -0.228489,0.62018 -0.228489,1.95032 0,1.14244 0.25297,1.77895 0.25297,0.63651 0.701789,0.63651 v 0.39985 z m 2.839797,-5.83464 q 0.97924,0 1.681029,0.68547 0.70995,0.68547 0.70995,1.70551 0,0.96292 -0.693629,1.67287 -0.685468,0.70995 -1.69735,0.70995 -0.971081,0 -1.68103,-0.69363 -0.701789,-0.69363 -0.701789,-1.68919 0,-0.9874 0.685468,-1.68919 0.693629,-0.70179 1.697351,-0.70179 z m 0,0.4733 q -0.791553,0 -1.354617,0.56307 -0.554903,0.5549 -0.554903,1.35461 0,0.80788 0.563064,1.36278 0.571223,0.5549 1.346456,0.5549 0.791552,0 1.354616,-0.56306 0.563063,-0.57123 0.563063,-1.35462 0,-0.79971 -0.563063,-1.35461 -0.563064,-0.56307 -1.354616,-0.56307 z m 0.587544,2.26858 0.497781,0.17136 q -0.244811,0.80788 -1.044524,0.80788 -0.473299,0 -0.848675,-0.3101 -0.367215,-0.31009 -0.367215,-1.00372 0,-0.66099 0.342734,-1.00372 0.350895,-0.34273 0.873156,-0.34273 0.783393,0 1.044524,0.76707 l -0.505941,0.1224 q -0.163207,-0.43249 -0.554903,-0.43249 -0.644667,0 -0.644667,0.87315 0,0.88132 0.603865,0.88132 0.440658,0 0.603865,-0.53042 z m 3.721105,1.90952 v -4.48819 h 1.387258 l 0.824194,3.09277 0.807874,-3.09277 h 1.387257 v 4.48819 h -0.856836 v -3.55791 l -0.889476,3.55791 h -0.913958 l -0.889477,-3.55791 v 3.55791 z m 5.100207,-3.76192 v -0.72627 h 0.873156 v 0.72627 z m 0,3.76192 v -3.22334 h 0.873156 v 3.22334 z m 4.471854,-2.35018 -0.856835,0.1632 q -0.09792,-0.53042 -0.595705,-0.53042 -0.709949,0 -0.709949,1.02821 0,1.1098 0.72627,1.1098 0.505941,0 0.628346,-0.62834 l 0.856835,0.14688 q -0.25297,1.11797 -1.525983,1.11797 -0.758911,0 -1.175089,-0.46514 -0.416177,-0.46514 -0.416177,-1.22405 0,-0.67731 0.375376,-1.18325 0.375375,-0.50594 1.232211,-0.50594 1.175088,0 1.4607,0.97108 z m 1.370932,2.35018 h -0.873156 v -3.22334 h 0.816034 v 0.44882 q 0.326413,-0.53042 0.750751,-0.53042 0.310093,0 0.563063,0.15504 l -0.25297,0.70995 q -0.23665,-0.15504 -0.424338,-0.15504 -0.318253,0 -0.448818,0.32641 -0.130566,0.31825 -0.130566,1.28117 z m 1.403565,-1.68103 q 0,-0.66915 0.465139,-1.15061 0.46514,-0.48962 1.232211,-0.48962 0.775232,0 1.240372,0.48146 0.473299,0.4733 0.473299,1.19957 0,0.71811 -0.473299,1.20773 -0.46514,0.48962 -1.232211,0.48962 -0.791553,0 -1.248532,-0.45698 -0.456979,-0.45698 -0.456979,-1.28117 z m 0.889477,0.049 q 0,0.4733 0.220329,0.76707 0.228489,0.28561 0.587544,0.28561 0.375376,0 0.587545,-0.28561 0.220329,-0.29377 0.220329,-0.77523 0,-0.48146 -0.220329,-0.75891 -0.212169,-0.28562 -0.587545,-0.28562 -0.359055,0 -0.587544,0.29378 -0.220329,0.28561 -0.220329,0.75891 z m 2.807145,0.75075 0.864995,-0.13873 q 0.122405,0.53042 0.70995,0.53042 0.628346,0 0.628346,-0.39985 0,-0.24481 -0.367215,-0.32642 -1.215891,-0.26929 -1.477022,-0.52226 -0.25297,-0.26113 -0.25297,-0.61202 0,-0.97108 1.395418,-0.97108 1.21589,0 1.45254,0.79971 l -0.824194,0.14689 q -0.106085,-0.39986 -0.612026,-0.39986 -0.587544,0 -0.587544,0.31825 0,0.26113 0.938439,0.4733 0.685468,0.14689 0.946599,0.36722 0.261131,0.21217 0.261131,0.60386 0,0.50594 -0.440658,0.79156 -0.432498,0.27745 -1.060844,0.27745 -1.330135,0 -1.574945,-0.93844 z m 3.517093,-0.79971 q 0,-0.66915 0.465139,-1.15061 0.465139,-0.48962 1.232211,-0.48962 0.775232,0 1.240371,0.48146 0.4733,0.4733 0.4733,1.19957 0,0.71811 -0.4733,1.20773 -0.465139,0.48962 -1.232211,0.48962 -0.791553,0 -1.248531,-0.45698 -0.456979,-0.45698 -0.456979,-1.28117 z m 0.889476,0.049 q 0,0.4733 0.22033,0.76707 0.228489,0.28561 0.587544,0.28561 0.375376,0 0.587544,-0.28561 0.220329,-0.29377 0.220329,-0.77523 0,-0.48146 -0.220329,-0.75891 -0.212168,-0.28562 -0.587544,-0.28562 -0.359055,0 -0.587544,0.29378 -0.22033,0.28561 -0.22033,0.75891 z m 2.750025,-1.59127 h 0.48962 v -0.28561 q 0,-1.05268 1.011882,-1.05268 0.383536,0 0.72627,0.10608 l -0.106084,0.53858 q -0.220329,-0.0571 -0.416178,-0.0571 -0.342734,0 -0.342734,0.4733 v 0.27745 h 0.644667 v 0.60387 h -0.644667 v 2.61947 h -0.873156 v -2.61947 h -0.48962 z m 4.023038,-0.0245 v 0.61203 h -0.587544 v 1.37909 q 0,0.41618 0.04896,0.54675 0.04896,0.1224 0.179527,0.1224 0.122406,0 0.367216,-0.0898 l 0.06528,0.60386 q -0.301932,0.13057 -0.693628,0.13057 -0.554903,0 -0.70995,-0.26113 -0.146886,-0.26929 -0.146886,-0.93844 v -1.49334 h -0.399856 v -0.61203 h 0.399856 v -0.66099 l 0.889477,-0.50594 v 1.16693 z m 0.603848,4.43106 v -0.39985 q 0.448818,0 0.701789,-0.63651 0.25297,-0.63651 0.25297,-1.77895 0,-1.33014 -0.220329,-1.95032 -0.228489,-0.62835 -0.71811,-0.62835 v -0.3917 q 0.08976,-0.0163 0.195848,-0.0163 0.72627,0 1.117967,0.77524 0.399856,0.77523 0.399856,2.18697 0,1.29749 -0.408017,2.08088 -0.416177,0.79156 -1.093485,0.79156 -0.146886,0 -0.228489,-0.0327 z m 2.68475,-0.73443 0.106084,0.008 q 0.138726,0 0.23665,-0.0571 0.122405,-0.0571 0.122405,-0.20401 0,-0.0408 -0.0082,-0.0653 -0.0408,0.008 -0.130566,0.008 -0.187687,0 -0.277451,-0.10608 -0.08976,-0.0979 -0.08976,-0.26113 0,-0.24481 0.163207,-0.36722 0.130565,-0.10608 0.293772,-0.10608 0.285612,0 0.448819,0.19584 0.114244,0.15505 0.114244,0.40802 0,0.29377 -0.163206,0.48146 -0.163207,0.19585 -0.416178,0.19585 -0.138725,0 -0.220329,-0.0245 -0.130565,-0.0326 -0.179527,-0.10609 z m 3.394688,-4.21073 v -0.72627 h 0.873156 v 0.72627 z m 0,3.76192 v -3.22334 h 0.873156 v 3.22334 z m 1.321963,-0.88132 0.864996,-0.13873 q 0.122405,0.53042 0.709949,0.53042 0.628346,0 0.628346,-0.39985 0,-0.24481 -0.367215,-0.32642 -1.215891,-0.26929 -1.477021,-0.52226 -0.252971,-0.26113 -0.252971,-0.61202 0,-0.97108 1.395418,-0.97108 1.21589,0 1.45254,0.79971 l -0.824194,0.14689 q -0.106084,-0.39986 -0.612025,-0.39986 -0.587545,0 -0.587545,0.31825 0,0.26113 0.938439,0.4733 0.685469,0.14689 0.946599,0.36722 0.261131,0.21217 0.261131,0.60386 0,0.50594 -0.440658,0.79156 -0.432498,0.27745 -1.060844,0.27745 -1.330135,0 -1.574945,-0.93844 z m 5.997838,-1.43622 -0.7834,-0.13873 q 0.24481,-0.86499 1.41174,-0.86499 0.83236,0 1.10981,0.27745 0.28561,0.27745 0.28561,0.96292 l -0.008,1.01188 q 0,0.70179 0.16321,1.04452 h -0.84052 q -0.0408,-0.11424 -0.10608,-0.33457 -0.44066,0.41618 -1.02005,0.41618 -0.50594,0 -0.80787,-0.26113 -0.29377,-0.26113 -0.29377,-0.67731 0,-0.33458 0.18769,-0.58755 0.19584,-0.25297 1.00372,-0.41617 0.62018,-0.10609 0.86499,-0.21217 v -0.13057 q 0,-0.50594 -0.60386,-0.50594 -0.40802,0 -0.56306,0.41618 z m 1.16692,0.70995 q -0.41617,0.0816 -0.99556,0.27745 -0.18769,0.13057 -0.18769,0.35089 0,0.25298 0.15505,0.37538 0.15505,0.12241 0.33458,0.12241 0.69362,0 0.69362,-0.9058 z m 4.56979,1.60759 h -0.87316 v -1.64839 q 0,-0.60387 -0.11425,-0.83236 -0.10608,-0.23665 -0.42433,-0.23665 -0.28562,0 -0.50594,0.17953 -0.22033,0.17137 -0.22033,1.08533 v 1.45254 h -0.87316 v -3.22334 h 0.80787 v 0.4733 q 0.4325,-0.5549 1.10165,-0.5549 1.10165,0 1.10165,1.28933 z m 2.14615,-1.68103 q 0,-0.66915 0.46514,-1.15061 0.46514,-0.48962 1.23221,-0.48962 0.77523,0 1.24037,0.48146 0.4733,0.4733 0.4733,1.19957 0,0.71811 -0.4733,1.20773 -0.46514,0.48962 -1.23221,0.48962 -0.79155,0 -1.24853,-0.45698 -0.45698,-0.45698 -0.45698,-1.28117 z m 0.88948,0.049 q 0,0.4733 0.22033,0.76707 0.22849,0.28561 0.58754,0.28561 0.37538,0 0.58755,-0.28561 0.22032,-0.29377 0.22032,-0.77523 0,-0.48146 -0.22032,-0.75891 -0.21217,-0.28562 -0.58755,-0.28562 -0.35905,0 -0.58754,0.29378 -0.22033,0.28561 -0.22033,0.75891 z m 3.01931,-1.88504 h 0.81603 v 0.46514 q 0.34274,-0.53858 1.03637,-0.53858 0.66915,0 1.02004,0.49778 0.35089,0.48962 0.35089,1.16693 0,0.72627 -0.36721,1.21589 -0.36722,0.48962 -1.01188,0.48962 -0.53042,0 -0.97108,-0.4733 v 1.65655 h -0.87316 z m 0.865,1.55862 q 0,1.12613 0.75891,1.12613 0.70179,0 0.70179,-1.08532 0,-1.06085 -0.71811,-1.06085 -0.74259,0 -0.74259,1.02004 z m 4.85539,0.96292 0.865,0.14689 q -0.31825,0.9058 -1.4199,0.9058 -0.865,0 -1.24037,-0.48146 -0.36722,-0.48962 -0.36722,-1.18325 0,-0.75075 0.39986,-1.23221 0.40802,-0.48146 1.10981,-0.48146 1.5831,0 1.5831,1.90136 h -2.20329 q 0.049,0.90579 0.72627,0.90579 0.41618,0 0.54674,-0.48146 z m 0.0653,-0.88131 q -0.0327,-0.85684 -0.66099,-0.85684 -0.64467,0 -0.64467,0.85684 z m 4.42288,1.87688 h -0.87315 v -1.64839 q 0,-0.60387 -0.11425,-0.83236 -0.10608,-0.23665 -0.42434,-0.23665 -0.28561,0 -0.50594,0.17953 -0.22033,0.17137 -0.22033,1.08533 v 1.45254 h -0.87315 v -3.22334 h 0.80787 v 0.4733 q 0.4325,-0.5549 1.10165,-0.5549 1.10164,0 1.10164,1.28933 z m 2.83979,-1.14245 h -2.07273 v -0.44066 h 2.07273 z m 0.54673,0.26113 0.86499,-0.13873 q 0.12241,0.53042 0.70995,0.53042 0.62835,0 0.62835,-0.39985 0,-0.24481 -0.36721,-0.32642 -1.2159,-0.26929 -1.47703,-0.52226 -0.25297,-0.26113 -0.25297,-0.61202 0,-0.97108 1.39542,-0.97108 1.21589,0 1.45254,0.79971 l -0.82419,0.14689 q -0.10609,-0.39986 -0.61203,-0.39986 -0.58754,0 -0.58754,0.31825 0,0.26113 0.93844,0.4733 0.68546,0.14689 0.9466,0.36722 0.26113,0.21217 0.26113,0.60386 0,0.50594 -0.44066,0.79156 -0.4325,0.27745 -1.06085,0.27745 -1.33013,0 -1.57494,-0.93844 z m 3.51709,-0.79971 q 0,-0.66915 0.46514,-1.15061 0.46514,-0.48962 1.23221,-0.48962 0.77523,0 1.24037,0.48146 0.4733,0.4733 0.4733,1.19957 0,0.71811 -0.4733,1.20773 -0.46514,0.48962 -1.23221,0.48962 -0.79155,0 -1.24853,-0.45698 -0.45698,-0.45698 -0.45698,-1.28117 z m 0.88948,0.049 q 0,0.4733 0.22032,0.76707 0.22849,0.28561 0.58755,0.28561 0.37537,0 0.58754,-0.28561 0.22033,-0.29377 0.22033,-0.77523 0,-0.48146 -0.22033,-0.75891 -0.21217,-0.28562 -0.58754,-0.28562 -0.35906,0 -0.58755,0.29378 -0.22032,0.28561 -0.22032,0.75891 z m 5.21444,1.60758 v -0.4733 q -0.38353,0.55491 -1.09348,0.55491 -1.10165,0 -1.10165,-1.24853 v -2.05641 h 0.87316 v 1.48518 q 0,0.72627 0.11424,0.97924 0.11425,0.25297 0.4325,0.25297 0.40802,0 0.5549,-0.26113 0.15505,-0.26929 0.15505,-1.10164 v -1.35462 h 0.87316 v 3.22333 z m 2.3665,0.0245 h -0.87316 v -3.22334 h 0.81604 v 0.44882 q 0.32641,-0.53042 0.75075,-0.53042 0.31009,0 0.56306,0.15504 l -0.25297,0.70995 q -0.23665,-0.15504 -0.42434,-0.15504 -0.31825,0 -0.44881,0.32641 -0.13057,0.31825 -0.13057,1.28117 z m 4.47185,-2.35018 -0.85683,0.1632 q -0.0979,-0.53042 -0.59571,-0.53042 -0.70995,0 -0.70995,1.02821 0,1.1098 0.72627,1.1098 0.50594,0 0.62835,-0.62834 l 0.85683,0.14688 q -0.25297,1.11797 -1.52598,1.11797 -0.75891,0 -1.17509,-0.46514 -0.41618,-0.46514 -0.41618,-1.22405 0,-0.67731 0.37538,-1.18325 0.37537,-0.50594 1.23221,-0.50594 1.17509,0 1.4607,0.97108 z m 2.4889,1.35461 0.86499,0.14689 q -0.31825,0.9058 -1.41989,0.9058 -0.865,0 -1.24038,-0.48146 -0.36721,-0.48962 -0.36721,-1.18325 0,-0.75075 0.39986,-1.23221 0.40801,-0.48146 1.1098,-0.48146 1.58311,0 1.58311,1.90136 h -2.20329 q 0.049,0.90579 0.72627,0.90579 0.41617,0 0.54674,-0.48146 z m 0.0653,-0.88131 q -0.0326,-0.85684 -0.66099,-0.85684 -0.64466,0 -0.64466,0.85684 z m 1.54229,2.32569 0.10608,0.008 q 0.13873,0 0.23665,-0.0571 0.12241,-0.0571 0.12241,-0.20401 0,-0.0408 -0.008,-0.0653 -0.0408,0.008 -0.13057,0.008 -0.18769,0 -0.27745,-0.10608 -0.0898,-0.0979 -0.0898,-0.26113 0,-0.24481 0.1632,-0.36722 0.13057,-0.10608 0.29378,-0.10608 0.28561,0 0.44881,0.19584 0.11425,0.15505 0.11425,0.40802 0,0.29377 -0.16321,0.48146 -0.1632,0.19585 -0.41618,0.19585 -0.13872,0 -0.22032,-0.0245 -0.13057,-0.0326 -0.17953,-0.10609 z"
         id="path3" /><path
         d="m 54.889403,135.3009 h -0.873156 v -1.64839 q 0,-0.60386 -0.114245,-0.83235 -0.106084,-0.23665 -0.424337,-0.23665 -0.285612,0 -0.505941,0.17953 -0.22033,0.17136 -0.22033,1.08532 v 1.45254 h -0.873156 v -3.22333 h 0.807874 v 0.4733 q 0.432498,-0.5549 1.101645,-0.5549 1.101646,0 1.101646,1.28933 z m 0.52225,-1.68103 q 0,-0.66914 0.465139,-1.1506 0.465139,-0.48962 1.232211,-0.48962 0.775232,0 1.240372,0.48146 0.473299,0.47329 0.473299,1.19957 0,0.7181 -0.473299,1.20773 -0.46514,0.48962 -1.232211,0.48962 -0.791553,0 -1.248532,-0.45698 -0.456979,-0.45698 -0.456979,-1.28118 z m 0.889477,0.049 q 0,0.4733 0.220329,0.76707 0.228489,0.28561 0.587544,0.28561 0.375376,0 0.587545,-0.28561 0.220329,-0.29377 0.220329,-0.77523 0,-0.48146 -0.220329,-0.75892 -0.212169,-0.28561 -0.587545,-0.28561 -0.359055,0 -0.587544,0.29377 -0.220329,0.28562 -0.220329,0.75892 z m 6.05496,1.63206 h -0.873156 v -1.64839 q 0,-0.60386 -0.114245,-0.83235 -0.106084,-0.23665 -0.424337,-0.23665 -0.285612,0 -0.505941,0.17953 -0.220329,0.17136 -0.220329,1.08532 v 1.45254 h -0.873157 v -3.22333 h 0.807874 v 0.4733 q 0.432498,-0.5549 1.101646,-0.5549 1.101645,0 1.101645,1.28933 z m 2.839785,-1.14244 H 63.12315 v -0.44066 h 2.072725 z m 3.696619,-1.20773 -0.856835,0.1632 q -0.09792,-0.53042 -0.595705,-0.53042 -0.709949,0 -0.709949,1.0282 0,1.10981 0.72627,1.10981 0.505941,0 0.628346,-0.62835 l 0.856835,0.14689 q -0.25297,1.11797 -1.525983,1.11797 -0.758912,0 -1.175089,-0.46514 -0.416177,-0.46514 -0.416177,-1.22405 0,-0.67731 0.375376,-1.18325 0.375375,-0.50594 1.232211,-0.50594 1.175088,0 1.4607,0.97108 z m 0.375372,0.66914 q 0,-0.66914 0.465139,-1.1506 0.465139,-0.48962 1.232211,-0.48962 0.775232,0 1.240372,0.48146 0.473299,0.47329 0.473299,1.19957 0,0.7181 -0.473299,1.20773 -0.46514,0.48962 -1.232212,0.48962 -0.791552,0 -1.248531,-0.45698 -0.456979,-0.45698 -0.456979,-1.28118 z m 0.889477,0.049 q 0,0.4733 0.220329,0.76707 0.228489,0.28561 0.587544,0.28561 0.375376,0 0.587545,-0.28561 0.220329,-0.29377 0.220329,-0.77523 0,-0.48146 -0.220329,-0.75892 -0.212169,-0.28561 -0.587545,-0.28561 -0.359055,0 -0.587544,0.29377 -0.220329,0.28562 -0.220329,0.75892 z m 2.994832,-1.59127 h 0.807874 v 0.4325 q 0.416177,-0.5141 1.036363,-0.5141 0.644666,0 0.930278,0.5141 0.416177,-0.5141 1.011882,-0.5141 1.077165,0 1.077165,1.23221 v 2.07272 h -0.873156 v -1.85239 q 0,-0.58755 -0.146887,-0.72627 -0.138725,-0.13873 -0.318253,-0.13873 -0.652827,0 -0.652827,1.16693 v 1.55046 h -0.873156 v -1.77079 q 0,-0.41618 -0.07344,-0.67731 -0.07344,-0.26929 -0.383536,-0.26929 -0.269291,0 -0.4733,0.18769 -0.195848,0.18769 -0.195848,0.96292 v 1.56678 h -0.873156 z m 5.483742,0 h 0.807873 v 0.4325 q 0.416178,-0.5141 1.036363,-0.5141 0.644667,0 0.930279,0.5141 0.416177,-0.5141 1.011882,-0.5141 1.077165,0 1.077165,1.23221 v 2.07272 h -0.873157 v -1.85239 q 0,-0.58755 -0.146886,-0.72627 -0.138726,-0.13873 -0.318253,-0.13873 -0.652827,0 -0.652827,1.16693 v 1.55046 H 80.6352 v -1.77079 q 0,-0.41618 -0.07344,-0.67731 -0.07344,-0.26929 -0.383536,-0.26929 -0.269291,0 -0.4733,0.18769 -0.195848,0.18769 -0.195848,0.96292 v 1.56678 H 78.63592 Z m 7.491185,2.22777 0.864996,0.14689 q -0.318253,0.9058 -1.419899,0.9058 -0.864996,0 -1.240372,-0.48146 -0.367215,-0.48962 -0.367215,-1.18325 0,-0.75075 0.399857,-1.23221 0.408017,-0.48146 1.109806,-0.48146 1.583105,0 1.583105,1.90135 h -2.203291 q 0.04896,0.9058 0.72627,0.9058 0.416177,0 0.546743,-0.48146 z m 0.06528,-0.88131 q -0.03264,-0.85684 -0.660988,-0.85684 -0.644667,0 -0.644667,0.85684 z m 2.25224,1.87687 h -0.873156 v -3.22333 H 88.3875 v 0.44882 q 0.326413,-0.53042 0.750751,-0.53042 0.310093,0 0.563063,0.15504 l -0.25297,0.70995 q -0.23665,-0.15504 -0.424338,-0.15504 -0.318253,0 -0.448818,0.32641 -0.130566,0.31825 -0.130566,1.28117 z m 4.47185,-2.35017 -0.856835,0.1632 q -0.09792,-0.53042 -0.595705,-0.53042 -0.709949,0 -0.709949,1.0282 0,1.10981 0.72627,1.10981 0.505941,0 0.628346,-0.62835 l 0.856835,0.14689 q -0.25297,1.11797 -1.525983,1.11797 -0.758911,0 -1.175089,-0.46514 -0.416177,-0.46514 -0.416177,-1.22405 0,-0.67731 0.375376,-1.18325 0.375375,-0.50594 1.232211,-0.50594 1.175088,0 1.4607,0.97108 z m 0.53042,-1.41174 v -0.72627 h 0.873156 v 0.72627 z m 0,3.76191 v -3.22333 h 0.873156 v 3.22333 z m 2.260402,-2.31753 -0.783392,-0.13873 q 0.24481,-0.86499 1.411738,-0.86499 0.832355,0 1.109806,0.27745 0.285612,0.27745 0.285612,0.96292 l -0.0082,1.01188 q 0,0.70179 0.163206,1.04452 H 97.04555 q -0.0408,-0.11424 -0.106085,-0.33457 -0.440658,0.41618 -1.020042,0.41618 -0.505941,0 -0.807874,-0.26114 -0.293772,-0.26113 -0.293772,-0.6773 0,-0.33458 0.187688,-0.58755 0.195848,-0.25297 1.003722,-0.41618 0.620185,-0.10608 0.864996,-0.21216 v -0.13057 q 0,-0.50594 -0.603866,-0.50594 -0.408016,0 -0.563063,0.41618 z m 1.166929,0.70995 q -0.416178,0.0816 -0.995562,0.27745 -0.187688,0.13056 -0.187688,0.35089 0,0.25297 0.155047,0.37538 0.155046,0.1224 0.334574,0.1224 0.693629,0 0.693629,-0.90579 z m 1.558616,1.60758 v -4.48818 h 0.873156 v 4.48818 z m 1.689181,0.44882 0.10609,0.008 q 0.13872,0 0.23665,-0.0571 0.1224,-0.0571 0.1224,-0.20401 0,-0.0408 -0.008,-0.0653 -0.0408,0.008 -0.13056,0.008 -0.18769,0 -0.27745,-0.10609 -0.0898,-0.0979 -0.0898,-0.26113 0,-0.24481 0.16321,-0.36721 0.13056,-0.10609 0.29377,-0.10609 0.28561,0 0.44882,0.19585 0.11424,0.15505 0.11424,0.40802 0,0.29377 -0.1632,0.48146 -0.16321,0.19585 -0.41618,0.19585 -0.13873,0 -0.22033,-0.0245 -0.13056,-0.0326 -0.17953,-0.10609 z m 5.35317,-1.44438 0.865,0.14689 q -0.31825,0.9058 -1.4199,0.9058 -0.865,0 -1.24037,-0.48146 -0.36722,-0.48962 -0.36722,-1.18325 0,-0.75075 0.39986,-1.23221 0.40802,-0.48146 1.10981,-0.48146 1.5831,0 1.5831,1.90135 h -2.20329 q 0.049,0.9058 0.72627,0.9058 0.41618,0 0.54674,-0.48146 z m 0.0653,-0.88131 q -0.0327,-0.85684 -0.66099,-0.85684 -0.64467,0 -0.64467,0.85684 z m 4.48817,1.85239 h -0.81603 v -0.46514 q -0.3917,0.54675 -1.03637,0.54675 -0.6365,0 -1.01188,-0.48146 -0.36721,-0.48962 -0.36721,-1.21589 0,-0.76708 0.35905,-1.22406 0.35905,-0.45697 1.0282,-0.45697 0.57123,0 0.96292,0.44881 v -1.63206 h 0.88132 z m -2.34202,-1.68103 q 0,1.15877 0.74259,1.15877 0.33458,0 0.53042,-0.30193 0.19585,-0.30193 0.19585,-0.77523 0,-1.10981 -0.73443,-1.10981 -0.73443,0 -0.73443,1.0282 z m 5.1818,1.68103 v -0.4733 q -0.38354,0.55491 -1.09349,0.55491 -1.10164,0 -1.10164,-1.24854 v -2.0564 h 0.87316 v 1.48518 q 0,0.72627 0.11424,0.97924 0.11424,0.25297 0.4325,0.25297 0.40801,0 0.5549,-0.26113 0.15505,-0.26929 0.15505,-1.10165 v -1.35461 h 0.87315 v 3.22333 z m 4.43922,-2.32569 -0.85683,0.1632 q -0.0979,-0.53042 -0.59571,-0.53042 -0.70995,0 -0.70995,1.0282 0,1.10981 0.72627,1.10981 0.50594,0 0.62835,-0.62835 l 0.85684,0.14689 q -0.25298,1.11797 -1.52599,1.11797 -0.75891,0 -1.17509,-0.46514 -0.41617,-0.46514 -0.41617,-1.22405 0,-0.67731 0.37537,-1.18325 0.37538,-0.50594 1.23221,-0.50594 1.17509,0 1.4607,0.97108 z m 1.23221,0.0326 -0.78339,-0.13873 q 0.24481,-0.86499 1.41173,-0.86499 0.83236,0 1.10981,0.27745 0.28561,0.27745 0.28561,0.96292 l -0.008,1.01188 q 0,0.70179 0.16321,1.04452 h -0.84052 q -0.0408,-0.11424 -0.10608,-0.33457 -0.44066,0.41618 -1.02004,0.41618 -0.50594,0 -0.80788,-0.26114 -0.29377,-0.26113 -0.29377,-0.6773 0,-0.33458 0.18769,-0.58755 0.19585,-0.25297 1.00372,-0.41618 0.62019,-0.10608 0.865,-0.21216 v -0.13057 q 0,-0.50594 -0.60387,-0.50594 -0.40801,0 -0.56306,0.41618 z m 1.16693,0.70995 q -0.41618,0.0816 -0.99556,0.27745 -0.18769,0.13056 -0.18769,0.35089 0,0.25297 0.15504,0.37538 0.15505,0.1224 0.33458,0.1224 0.69363,0 0.69363,-0.90579 z m 3.14988,-1.64023 v 0.61202 h -0.58754 v 1.3791 q 0,0.41618 0.049,0.54674 0.049,0.12241 0.17953,0.12241 0.1224,0 0.36721,-0.0898 l 0.0653,0.60387 q -0.30194,0.13057 -0.69363,0.13057 -0.55491,0 -0.70995,-0.26114 -0.14689,-0.26929 -0.14689,-0.93843 v -1.49335 h -0.39985 v -0.61202 h 0.39985 v -0.66099 l 0.88948,-0.50594 v 1.16693 z m 0.48145,-0.5141 v -0.72627 h 0.87315 v 0.72627 z m 0,3.76191 v -3.22333 h 0.87315 v 3.22333 z m 1.40357,-1.68103 q 0,-0.66914 0.46513,-1.1506 0.46514,-0.48962 1.23222,-0.48962 0.77523,0 1.24037,0.48146 0.4733,0.47329 0.4733,1.19957 0,0.7181 -0.4733,1.20773 -0.46514,0.48962 -1.23221,0.48962 -0.79156,0 -1.24854,-0.45698 -0.45697,-0.45698 -0.45697,-1.28118 z m 0.88947,0.049 q 0,0.4733 0.22033,0.76707 0.22849,0.28561 0.58755,0.28561 0.37537,0 0.58754,-0.28561 0.22033,-0.29377 0.22033,-0.77523 0,-0.48146 -0.22033,-0.75892 -0.21217,-0.28561 -0.58754,-0.28561 -0.35906,0 -0.58755,0.29377 -0.22033,0.28562 -0.22033,0.75892 z m 6.05496,1.63206 h -0.87316 v -1.64839 q 0,-0.60386 -0.11424,-0.83235 -0.10609,-0.23665 -0.42434,-0.23665 -0.28561,0 -0.50594,0.17953 -0.22033,0.17136 -0.22033,1.08532 v 1.45254 h -0.87316 v -3.22333 h 0.80788 v 0.4733 q 0.43249,-0.5549 1.10164,-0.5549 1.10165,0 1.10165,1.28933 z m 1.37908,-2.31753 -0.78339,-0.13873 q 0.24481,-0.86499 1.41174,-0.86499 0.83235,0 1.10981,0.27745 0.28561,0.27745 0.28561,0.96292 l -0.008,1.01188 q 0,0.70179 0.1632,1.04452 h -0.84051 q -0.0408,-0.11424 -0.10609,-0.33457 -0.44065,0.41618 -1.02004,0.41618 -0.50594,0 -0.80787,-0.26114 -0.29377,-0.26113 -0.29377,-0.6773 0,-0.33458 0.18768,-0.58755 0.19585,-0.25297 1.00373,-0.41618 0.62018,-0.10608 0.86499,-0.21216 v -0.13057 q 0,-0.50594 -0.60386,-0.50594 -0.40802,0 -0.56307,0.41618 z m 1.16693,0.70995 q -0.41618,0.0816 -0.99556,0.27745 -0.18769,0.13056 -0.18769,0.35089 0,0.25297 0.15505,0.37538 0.15505,0.1224 0.33457,0.1224 0.69363,0 0.69363,-0.90579 z m 1.55862,1.60758 v -4.48818 h 0.87316 v 4.48818 z m 3.15804,-3.5171 h 0.81603 v 0.46514 q 0.34274,-0.53859 1.03637,-0.53859 0.66914,0 1.02004,0.49778 0.35089,0.48963 0.35089,1.16693 0,0.72627 -0.36721,1.21589 -0.36722,0.48962 -1.01188,0.48962 -0.53043,0 -0.97108,-0.4733 v 1.65655 h -0.87316 z m 0.86499,1.55862 q 0,1.12613 0.75892,1.12613 0.70179,0 0.70179,-1.08533 0,-1.06084 -0.71811,-1.06084 -0.7426,0 -0.7426,1.02004 z m 3.73743,1.95848 h -0.87315 v -3.22333 h 0.81603 v 0.44882 q 0.32641,-0.53042 0.75075,-0.53042 0.31009,0 0.56306,0.15504 l -0.25297,0.70995 q -0.23665,-0.15504 -0.42433,-0.15504 -0.31826,0 -0.44882,0.32641 -0.13057,0.31825 -0.13057,1.28117 z m 1.40356,-1.68103 q 0,-0.66914 0.46514,-1.1506 0.46514,-0.48962 1.23221,-0.48962 0.77524,0 1.24038,0.48146 0.4733,0.47329 0.4733,1.19957 0,0.7181 -0.4733,1.20773 -0.46514,0.48962 -1.23221,0.48962 -0.79156,0 -1.24854,-0.45698 -0.45698,-0.45698 -0.45698,-1.28118 z m 0.88948,0.049 q 0,0.4733 0.22033,0.76707 0.22849,0.28561 0.58754,0.28561 0.37538,0 0.58755,-0.28561 0.22033,-0.29377 0.22033,-0.77523 0,-0.48146 -0.22033,-0.75892 -0.21217,-0.28561 -0.58755,-0.28561 -0.35905,0 -0.58754,0.29377 -0.22033,0.28562 -0.22033,0.75892 z m 3.20701,-2.43995 v -0.72627 h 0.87315 v 0.72627 z m 0.87315,0.53859 v 3.15805 q 0,0.77523 -0.20401,1.08532 -0.19584,0.31826 -0.79971,0.31826 -0.26113,0 -0.5957,-0.0898 l 0.13872,-0.66915 q 0.14689,0.0245 0.22033,0.0245 0.21217,0 0.28561,-0.12241 0.0816,-0.1224 0.0816,-0.5957 v -3.10909 z m 2.65211,2.53786 0.86499,0.14689 q -0.31825,0.9058 -1.41989,0.9058 -0.865,0 -1.24038,-0.48146 -0.36721,-0.48962 -0.36721,-1.18325 0,-0.75075 0.39986,-1.23221 0.40801,-0.48146 1.1098,-0.48146 1.58311,0 1.58311,1.90135 h -2.20329 q 0.049,0.9058 0.72627,0.9058 0.41617,0 0.54674,-0.48146 z m 0.0653,-0.88131 q -0.0326,-0.85684 -0.66099,-0.85684 -0.64466,0 -0.64466,0.85684 z m 4.32497,-0.4733 -0.85683,0.1632 q -0.0979,-0.53042 -0.59571,-0.53042 -0.70995,0 -0.70995,1.0282 0,1.10981 0.72627,1.10981 0.50594,0 0.62835,-0.62835 l 0.85683,0.14689 q -0.25297,1.11797 -1.52598,1.11797 -0.75891,0 -1.17509,-0.46514 -0.41618,-0.46514 -0.41618,-1.22405 0,-0.67731 0.37538,-1.18325 0.37538,-0.50594 1.23221,-0.50594 1.17509,0 1.4607,0.97108 z m 2.12168,-0.89764 v 0.61202 h -0.58754 v 1.3791 q 0,0.41618 0.049,0.54674 0.049,0.12241 0.17953,0.12241 0.1224,0 0.36721,-0.0898 l 0.0653,0.60387 q -0.30194,0.13057 -0.69363,0.13057 -0.5549,0 -0.70995,-0.26114 -0.14689,-0.26929 -0.14689,-0.93843 v -1.49335 h -0.39985 v -0.61202 h 0.39985 v -0.66099 l 0.88948,-0.50594 v 1.16693 z m 2.05639,1.25669 q 0,0.22033 -0.17137,0.3509 -0.15504,0.10608 -0.35905,0.10608 -0.20401,0 -0.35906,-0.10608 -0.1632,-0.13057 -0.1632,-0.3509 0,-0.23665 0.17137,-0.37538 0.15504,-0.11424 0.38353,-0.11424 0.20401,0 0.34274,0.12241 0.15504,0.13872 0.15504,0.36721 z m -1.02004,2.73371 0.10608,0.008 q 0.13873,0 0.23665,-0.0571 0.12241,-0.0571 0.12241,-0.20401 0,-0.0408 -0.008,-0.0571 -0.0408,0.008 -0.13057,0.008 -0.18768,0 -0.27745,-0.11424 -0.0898,-0.0979 -0.0898,-0.26113 0,-0.24481 0.1632,-0.36722 0.13057,-0.0979 0.29378,-0.0979 0.28561,0 0.44882,0.18768 0.11424,0.15505 0.11424,0.40802 0,0.29377 -0.16321,0.48146 -0.1632,0.19585 -0.41617,0.19585 -0.13873,0 -0.22033,-0.0163 -0.13057,-0.0408 -0.17953,-0.11425 z"
         id="path4" /><path
         d="m 54.048888,143.99003 v -0.4733 q -0.383536,0.5549 -1.093485,0.5549 -1.101646,0 -1.101646,-1.24853 v -2.0564 h 0.873156 v 1.48518 q 0,0.72627 0.114245,0.97924 0.114245,0.25297 0.432498,0.25297 0.408017,0 0.554903,-0.26113 0.155047,-0.26929 0.155047,-1.10165 v -1.35461 h 0.873156 v 3.22333 z m 1.289331,-0.85684 0.864996,-0.13872 q 0.122405,0.53042 0.70995,0.53042 0.628346,0 0.628346,-0.39986 0,-0.24481 -0.367215,-0.32641 -1.215891,-0.26929 -1.477022,-0.52226 -0.25297,-0.26113 -0.25297,-0.61203 0,-0.97108 1.395418,-0.97108 1.21589,0 1.45254,0.79972 l -0.824194,0.14688 Q 57.361983,141.24 56.856042,141.24 q -0.587544,0 -0.587544,0.31825 0,0.26113 0.938439,0.4733 0.685468,0.14688 0.946599,0.36721 0.261131,0.21217 0.261131,0.60387 0,0.50594 -0.440658,0.79155 -0.432498,0.27745 -1.060844,0.27745 -1.330135,0 -1.574946,-0.93844 z m 5.630621,-0.11424 0.864995,0.14689 q -0.318253,0.90579 -1.419898,0.90579 -0.864996,0 -1.240372,-0.48146 -0.367215,-0.48962 -0.367215,-1.18325 0,-0.75075 0.399857,-1.23221 0.408016,-0.48146 1.109806,-0.48146 1.583105,0 1.583105,1.90136 h -2.203291 q 0.04896,0.9058 0.72627,0.9058 0.416177,0 0.546743,-0.48146 z m 0.06528,-0.88132 q -0.03264,-0.85683 -0.660987,-0.85683 -0.644667,0 -0.644667,0.85683 z m 3.035628,-1.88504 v -0.72627 h 0.873157 v 0.72627 z m 0,3.76192 v -3.22333 h 0.873157 v 3.22333 z m 3.14988,-3.24781 v 0.61202 h -0.587544 v 1.3791 q 0,0.41618 0.04896,0.54674 0.04896,0.12241 0.179527,0.12241 0.122405,0 0.367215,-0.0898 l 0.06528,0.60387 q -0.301932,0.13056 -0.693629,0.13056 -0.554903,0 -0.709949,-0.26113 -0.146886,-0.26929 -0.146886,-0.93844 v -1.49334 h -0.399857 v -0.61202 h 0.399857 v -0.66099 l 0.889477,-0.50594 v 1.16693 z m 2.807137,0.93027 -0.783393,-0.13872 q 0.24481,-0.865 1.411739,-0.865 0.832354,0 1.109806,0.27745 0.285611,0.27746 0.285611,0.96292 l -0.0082,1.01189 q 0,0.70179 0.163207,1.04452 H 71.36502 q -0.0408,-0.11424 -0.106084,-0.33457 -0.440659,0.41617 -1.020043,0.41617 -0.505941,0 -0.807873,-0.26113 -0.293772,-0.26113 -0.293772,-0.67731 0,-0.33457 0.187687,-0.58754 0.195849,-0.25297 1.003722,-0.41618 0.620186,-0.10608 0.864996,-0.21217 v -0.13056 q 0,-0.50594 -0.603865,-0.50594 -0.408017,0 -0.563063,0.41617 z m 1.166928,0.70995 q -0.416177,0.0816 -0.995561,0.27746 -0.187688,0.13056 -0.187688,0.35089 0,0.25297 0.155046,0.37538 0.155047,0.1224 0.334574,0.1224 0.693629,0 0.693629,-0.9058 z m 3.149884,-1.64022 v 0.61202 h -0.587544 v 1.3791 q 0,0.41618 0.04896,0.54674 0.04896,0.12241 0.179527,0.12241 0.122405,0 0.367216,-0.0898 l 0.06528,0.60387 q -0.301932,0.13056 -0.693629,0.13056 -0.554903,0 -0.709949,-0.26113 -0.146886,-0.26929 -0.146886,-0.93844 v -1.49334 h -0.399857 v -0.61202 h 0.399857 v -0.66099 l 0.889477,-0.50594 v 1.16693 z m 1.778934,-0.28562 h 0.922118 l 0.775232,2.31754 0.767072,-2.31754 h 0.897637 l -1.362776,3.68848 q -0.310093,0.87315 -1.232211,0.87315 -0.261131,0 -0.497781,-0.0571 l -0.06528,-0.58754 q 0.204009,0.0326 0.359055,0.0326 0.489621,0 0.677308,-0.68547 z m 3.672147,1.8524 q 0,-0.66915 0.46514,-1.15061 0.465139,-0.48962 1.232211,-0.48962 0.775232,0 1.240371,0.48146 0.4733,0.4733 0.4733,1.19957 0,0.71811 -0.4733,1.20773 -0.465139,0.48962 -1.232211,0.48962 -0.791553,0 -1.248532,-0.45698 -0.456979,-0.45697 -0.456979,-1.28117 z m 0.889477,0.049 q 0,0.4733 0.220329,0.76707 0.22849,0.28562 0.587545,0.28562 0.375375,0 0.587544,-0.28562 0.220329,-0.29377 0.220329,-0.77523 0,-0.48146 -0.220329,-0.75891 -0.212169,-0.28561 -0.587544,-0.28561 -0.359055,0 -0.587545,0.29377 -0.220329,0.28561 -0.220329,0.75891 z m 5.214445,1.60759 v -0.4733 q -0.383536,0.5549 -1.093486,0.5549 -1.101645,0 -1.101645,-1.24853 v -2.0564 h 0.873156 v 1.48518 q 0,0.72627 0.114245,0.97924 0.114244,0.25297 0.432497,0.25297 0.408017,0 0.554903,-0.26113 0.155047,-0.26929 0.155047,-1.10165 v -1.35461 h 0.873156 v 3.22333 z m 2.366497,0.0245 h -0.873156 v -3.22333 h 0.816033 V 141.24 q 0.326414,-0.53043 0.750752,-0.53043 0.310092,0 0.563063,0.15505 l -0.252971,0.70995 q -0.236649,-0.15505 -0.424337,-0.15505 -0.318253,0 -0.448819,0.32642 -0.130565,0.31825 -0.130565,1.28117 z m 3.027464,-1.68103 q 0,-0.66915 0.465139,-1.15061 0.46514,-0.48962 1.232211,-0.48962 0.775233,0 1.240372,0.48146 0.473299,0.4733 0.473299,1.19957 0,0.71811 -0.473299,1.20773 -0.465139,0.48962 -1.232211,0.48962 -0.791553,0 -1.248532,-0.45698 -0.456979,-0.45697 -0.456979,-1.28117 z m 0.889477,0.049 q 0,0.4733 0.220329,0.76707 0.22849,0.28562 0.587544,0.28562 0.375376,0 0.587545,-0.28562 0.220329,-0.29377 0.220329,-0.77523 0,-0.48146 -0.220329,-0.75891 -0.212169,-0.28561 -0.587545,-0.28561 -0.359054,0 -0.587544,0.29377 -0.220329,0.28561 -0.220329,0.75891 z m 3.729267,1.63207 -1.020043,-3.22333 h 0.840515 l 0.612026,2.13801 0.563063,-2.13801 h 0.856835 l 0.546743,2.13801 0.620186,-2.13801 h 0.856835 l -1.036363,3.22333 h -0.856835 l -0.554903,-2.09721 -0.563063,2.09721 z m 7.270855,0 h -0.87316 v -1.64839 q 0,-0.60386 -0.11425,-0.83235 -0.10608,-0.23665 -0.42433,-0.23665 -0.28562,0 -0.50594,0.17953 -0.22033,0.17136 -0.22033,1.08532 v 1.45254 h -0.87316 v -3.22333 h 0.80787 v 0.4733 q 0.4325,-0.55491 1.10165,-0.55491 1.10165,0 1.10165,1.28934 z m 3.14171,0 h -0.87316 v -3.22333 h 0.81604 V 141.24 q 0.32641,-0.53043 0.75075,-0.53043 0.31009,0 0.56306,0.15505 l -0.25297,0.70995 q -0.23665,-0.15505 -0.42434,-0.15505 -0.31825,0 -0.44882,0.32642 -0.13056,0.31825 -0.13056,1.28117 z m 1.55861,-3.76192 v -0.72627 h 0.87315 v 0.72627 z m 0,3.76192 v -3.22333 h 0.87315 v 3.22333 z m 1.32196,-0.88132 0.865,-0.13872 q 0.1224,0.53042 0.70995,0.53042 0.62834,0 0.62834,-0.39986 0,-0.24481 -0.36721,-0.32641 -1.21589,-0.26929 -1.47702,-0.52226 -0.25298,-0.26113 -0.25298,-0.61203 0,-0.97108 1.39542,-0.97108 1.21589,0 1.45254,0.79972 l -0.82419,0.14688 q -0.10609,-0.39985 -0.61203,-0.39985 -0.58754,0 -0.58754,0.31825 0,0.26113 0.93844,0.4733 0.68547,0.14688 0.9466,0.36721 0.26113,0.21217 0.26113,0.60387 0,0.50594 -0.44066,0.79155 -0.4325,0.27745 -1.06084,0.27745 -1.33014,0 -1.57495,-0.93844 z m 3.6395,0.88132 v -4.48819 h 0.87315 v 2.41546 l 1.02005,-1.1506 h 1.02004 l -1.07717,1.15877 1.19141,2.06456 h -0.92211 l -0.8242,-1.46886 -0.40802,0.41618 v 1.05268 z m 4.79826,-3.22333 h 0.48962 v -0.28561 q 0,-1.05269 1.01188,-1.05269 0.38354,0 0.72627,0.10609 l -0.10608,0.53858 q -0.22033,-0.0571 -0.41618,-0.0571 -0.34273,0 -0.34273,0.4733 v 0.27745 h 0.64467 v 0.60386 h -0.64467 v 2.61947 h -0.87316 v -2.61947 h -0.48962 z m 2.27673,1.5423 q 0,-0.66915 0.46514,-1.15061 0.46514,-0.48962 1.23221,-0.48962 0.77523,0 1.24037,0.48146 0.4733,0.4733 0.4733,1.19957 0,0.71811 -0.4733,1.20773 -0.46514,0.48962 -1.23221,0.48962 -0.79155,0 -1.24853,-0.45698 -0.45698,-0.45697 -0.45698,-1.28117 z m 0.88948,0.049 q 0,0.4733 0.22032,0.76707 0.22849,0.28562 0.58755,0.28562 0.37537,0 0.58754,-0.28562 0.22033,-0.29377 0.22033,-0.77523 0,-0.48146 -0.22033,-0.75891 -0.21217,-0.28561 -0.58754,-0.28561 -0.35906,0 -0.58755,0.29377 -0.22032,0.28561 -0.22032,0.75891 z m 3.8843,1.63207 h -0.87316 v -3.22333 h 0.81604 V 141.24 q 0.32641,-0.53043 0.75075,-0.53043 0.31009,0 0.56306,0.15505 l -0.25297,0.70995 q -0.23665,-0.15505 -0.42433,-0.15505 -0.31826,0 -0.44882,0.32642 -0.13057,0.31825 -0.13057,1.28117 z m 6.19368,0 h -0.87315 v -1.64839 q 0,-0.60386 -0.11425,-0.83235 -0.10608,-0.23665 -0.42433,-0.23665 -0.28562,0 -0.50595,0.17953 -0.22032,0.17136 -0.22032,1.08532 v 1.45254 h -0.87316 v -3.22333 h 0.80787 v 0.4733 q 0.4325,-0.55491 1.10165,-0.55491 1.10164,0 1.10164,1.28934 z m 0.52225,-1.68103 q 0,-0.66915 0.46514,-1.15061 0.46514,-0.48962 1.23221,-0.48962 0.77524,0 1.24038,0.48146 0.4733,0.4733 0.4733,1.19957 0,0.71811 -0.4733,1.20773 -0.46514,0.48962 -1.23221,0.48962 -0.79156,0 -1.24854,-0.45698 -0.45698,-0.45697 -0.45698,-1.28117 z m 0.88948,0.049 q 0,0.4733 0.22033,0.76707 0.22849,0.28562 0.58754,0.28562 0.37538,0 0.58755,-0.28562 0.22033,-0.29377 0.22033,-0.77523 0,-0.48146 -0.22033,-0.75891 -0.21217,-0.28561 -0.58755,-0.28561 -0.35905,0 -0.58754,0.29377 -0.22033,0.28561 -0.22033,0.75891 z m 6.05496,1.63207 h -0.87316 v -1.64839 q 0,-0.60386 -0.11424,-0.83235 -0.10609,-0.23665 -0.42434,-0.23665 -0.28561,0 -0.50594,0.17953 -0.22033,0.17136 -0.22033,1.08532 v 1.45254 h -0.87316 v -3.22333 h 0.80788 v 0.4733 q 0.43249,-0.55491 1.10164,-0.55491 1.10165,0 1.10165,1.28934 z m 2.83978,-1.14245 h -2.07272 v -0.44065 h 2.07272 z"
         id="path5" /><path
         d="m 54.791479,150.37794 -0.856835,0.16321 q -0.09792,-0.53042 -0.595705,-0.53042 -0.70995,0 -0.70995,1.0282 0,1.1098 0.726271,1.1098 0.50594,0 0.628346,-0.62834 l 0.856835,0.14688 q -0.25297,1.11797 -1.525983,1.11797 -0.758912,0 -1.175089,-0.46514 -0.416177,-0.46514 -0.416177,-1.22405 0,-0.67731 0.375375,-1.18325 0.375376,-0.50594 1.232212,-0.50594 1.175088,0 1.4607,0.97108 z m 0.375372,0.66915 q 0,-0.66915 0.465139,-1.15061 0.465139,-0.48962 1.232211,-0.48962 0.775232,0 1.240371,0.48146 0.4733,0.4733 0.4733,1.19957 0,0.71811 -0.4733,1.20773 -0.465139,0.48962 -1.232211,0.48962 -0.791552,0 -1.248531,-0.45698 -0.456979,-0.45698 -0.456979,-1.28117 z m 0.889477,0.049 q 0,0.4733 0.220329,0.76707 0.228489,0.28561 0.587544,0.28561 0.375376,0 0.587544,-0.28561 0.22033,-0.29377 0.22033,-0.77523 0,-0.48146 -0.22033,-0.75891 -0.212168,-0.28561 -0.587544,-0.28561 -0.359055,0 -0.587544,0.29377 -0.220329,0.28561 -0.220329,0.75891 z m 2.994833,-1.59126 h 0.807873 v 0.43249 q 0.416178,-0.5141 1.036363,-0.5141 0.644667,0 0.930279,0.5141 0.416177,-0.5141 1.011882,-0.5141 1.077165,0 1.077165,1.23221 v 2.07273 h -0.873157 v -1.8524 q 0,-0.58754 -0.146886,-0.72627 -0.138725,-0.13872 -0.318253,-0.13872 -0.652827,0 -0.652827,1.16692 v 1.55047 h -0.873156 v -1.77079 q 0,-0.41618 -0.07344,-0.67731 -0.07344,-0.26929 -0.383536,-0.26929 -0.269291,0 -0.4733,0.18768 -0.195848,0.18769 -0.195848,0.96292 v 1.56679 h -0.873156 z m 5.483742,0 h 0.807873 v 0.43249 q 0.416177,-0.5141 1.036363,-0.5141 0.644667,0 0.930279,0.5141 0.416177,-0.5141 1.011882,-0.5141 1.077164,0 1.077164,1.23221 v 2.07273 h -0.873156 v -1.8524 q 0,-0.58754 -0.146886,-0.72627 -0.138726,-0.13872 -0.318253,-0.13872 -0.652827,0 -0.652827,1.16692 v 1.55047 h -0.873156 v -1.77079 q 0,-0.41618 -0.07344,-0.67731 -0.07344,-0.26929 -0.383536,-0.26929 -0.269291,0 -0.4733,0.18768 -0.195848,0.18769 -0.195848,0.96292 v 1.56679 h -0.873156 z m 7.491186,2.22777 0.864996,0.14688 q -0.318254,0.9058 -1.419899,0.9058 -0.864996,0 -1.240372,-0.48146 -0.367215,-0.48962 -0.367215,-1.18325 0,-0.75075 0.399857,-1.23221 0.408017,-0.48146 1.109806,-0.48146 1.583105,0 1.583105,1.90136 h -2.203291 q 0.04896,0.9058 0.72627,0.9058 0.416177,0 0.546743,-0.48146 z m 0.06528,-0.88132 q -0.03264,-0.85683 -0.660987,-0.85683 -0.644667,0 -0.644667,0.85683 z m 2.252239,1.87688 h -0.873156 v -3.22333 h 0.816034 v 0.44881 q 0.326413,-0.53042 0.750751,-0.53042 0.310093,0 0.563063,0.15505 l -0.25297,0.70995 q -0.23665,-0.15505 -0.424338,-0.15505 -0.318253,0 -0.448818,0.32641 -0.130566,0.31826 -0.130566,1.28118 z m 4.471852,-2.35018 -0.856835,0.16321 q -0.09793,-0.53042 -0.595705,-0.53042 -0.70995,0 -0.70995,1.0282 0,1.1098 0.726271,1.1098 0.505941,0 0.628346,-0.62834 l 0.856835,0.14688 q -0.25297,1.11797 -1.525983,1.11797 -0.758912,0 -1.175089,-0.46514 -0.416177,-0.46514 -0.416177,-1.22405 0,-0.67731 0.375375,-1.18325 0.375376,-0.50594 1.232212,-0.50594 1.175088,0 1.4607,0.97108 z m 0.530416,-1.41174 v -0.72627 h 0.873156 v 0.72627 z m 0,3.76192 v -3.22333 h 0.873156 v 3.22333 z m 2.260404,-2.31754 -0.783392,-0.13872 q 0.24481,-0.865 1.411738,-0.865 0.832355,0 1.109806,0.27745 0.285612,0.27745 0.285612,0.96292 l -0.0082,1.01188 q 0,0.70179 0.163206,1.04453 h -0.840514 q -0.0408,-0.11425 -0.106085,-0.33458 -0.440658,0.41618 -1.020042,0.41618 -0.505941,0 -0.807874,-0.26113 -0.293772,-0.26113 -0.293772,-0.67731 0,-0.33457 0.187688,-0.58754 0.195848,-0.25297 1.003722,-0.41618 0.620185,-0.10608 0.864995,-0.21217 v -0.13056 q 0,-0.50594 -0.603865,-0.50594 -0.408017,0 -0.563063,0.41617 z m 1.166928,0.70995 q -0.416177,0.0816 -0.995561,0.27745 -0.187688,0.13057 -0.187688,0.3509 0,0.25297 0.155047,0.37537 0.155046,0.12241 0.334574,0.12241 0.693628,0 0.693628,-0.9058 z m 1.558619,1.60759 v -4.48819 h 0.873156 v 4.48819 z m 3.158037,-3.51711 H 88.3059 v 0.46514 q 0.342734,-0.53858 1.036362,-0.53858 0.669148,0 1.020043,0.49778 0.350894,0.48962 0.350894,1.16693 0,0.72627 -0.367215,1.21589 -0.367215,0.48962 -1.011882,0.48962 -0.530422,0 -0.97108,-0.4733 v 1.65655 h -0.873156 z m 0.864996,1.55863 q 0,1.12612 0.758911,1.12612 0.701789,0 0.701789,-1.08532 0,-1.06084 -0.71811,-1.06084 -0.74259,0 -0.74259,1.02004 z m 5.067561,1.934 v -0.4733 q -0.383535,0.5549 -1.093485,0.5549 -1.101646,0 -1.101646,-1.24853 v -2.05641 h 0.873157 v 1.48519 q 0,0.72627 0.114244,0.97924 0.114245,0.25297 0.432498,0.25297 0.408017,0 0.554903,-0.26113 0.155047,-0.2693 0.155047,-1.10165 v -1.35462 h 0.873156 v 3.22334 z m 2.366498,0.0245 h -0.873157 v -3.22333 h 0.816034 v 0.44881 q 0.326414,-0.53042 0.750751,-0.53042 0.310093,0 0.563064,0.15505 l -0.252971,0.70995 q -0.23665,-0.15505 -0.424337,-0.15505 -0.318253,0 -0.448819,0.32641 -0.130565,0.31826 -0.130565,1.28118 z m 1.534128,-3.51711 h 0.816034 v 0.46514 q 0.342734,-0.53858 1.036363,-0.53858 0.669147,0 1.020046,0.49778 0.35089,0.48962 0.35089,1.16693 0,0.72627 -0.36721,1.21589 -0.36722,0.48962 -1.011887,0.48962 -0.530422,0 -0.97108,-0.4733 v 1.65655 h -0.873156 z m 0.864996,1.55863 q 0,1.12612 0.758911,1.12612 0.701789,0 0.701789,-1.08532 0,-1.06084 -0.718109,-1.06084 -0.742591,0 -0.742591,1.02004 z m 2.741867,0.27745 q 0,-0.66915 0.46514,-1.15061 0.46514,-0.48962 1.23221,-0.48962 0.77523,0 1.24037,0.48146 0.4733,0.4733 0.4733,1.19957 0,0.71811 -0.4733,1.20773 -0.46514,0.48962 -1.23221,0.48962 -0.79155,0 -1.24853,-0.45698 -0.45698,-0.45698 -0.45698,-1.28117 z m 0.88948,0.049 q 0,0.4733 0.22033,0.76707 0.22849,0.28561 0.58754,0.28561 0.37538,0 0.58755,-0.28561 0.22032,-0.29377 0.22032,-0.77523 0,-0.48146 -0.22032,-0.75891 -0.21217,-0.28561 -0.58755,-0.28561 -0.35905,0 -0.58754,0.29377 -0.22033,0.28561 -0.22033,0.75891 z m 2.80715,0.75075 0.86499,-0.13872 q 0.12241,0.53042 0.70995,0.53042 0.62835,0 0.62835,-0.39986 0,-0.24481 -0.36722,-0.32641 -1.21589,-0.26929 -1.47702,-0.52226 -0.25297,-0.26113 -0.25297,-0.61203 0,-0.97108 1.39542,-0.97108 1.21589,0 1.45254,0.79971 l -0.8242,0.14689 q -0.10608,-0.39986 -0.61202,-0.39986 -0.58755,0 -0.58755,0.31826 0,0.26113 0.93844,0.4733 0.68547,0.14688 0.9466,0.36721 0.26113,0.21217 0.26113,0.60387 0,0.50594 -0.44066,0.79155 -0.43249,0.27745 -1.06084,0.27745 -1.33013,0 -1.57494,-0.93844 z m 5.63061,-0.11424 0.865,0.14688 q -0.31825,0.9058 -1.4199,0.9058 -0.865,0 -1.24037,-0.48146 -0.36722,-0.48962 -0.36722,-1.18325 0,-0.75075 0.39986,-1.23221 0.40802,-0.48146 1.10981,-0.48146 1.5831,0 1.5831,1.90136 h -2.20329 q 0.049,0.9058 0.72627,0.9058 0.41618,0 0.54674,-0.48146 z m 0.0653,-0.88132 q -0.0327,-0.85683 -0.66099,-0.85683 -0.64467,0 -0.64467,0.85683 z m 1.17507,0.99556 0.865,-0.13872 q 0.1224,0.53042 0.70995,0.53042 0.62834,0 0.62834,-0.39986 0,-0.24481 -0.36721,-0.32641 -1.21589,-0.26929 -1.47702,-0.52226 -0.25297,-0.26113 -0.25297,-0.61203 0,-0.97108 1.39541,-0.97108 1.21589,0 1.45254,0.79971 l -0.82419,0.14689 q -0.10608,-0.39986 -0.61203,-0.39986 -0.58754,0 -0.58754,0.31826 0,0.26113 0.93844,0.4733 0.68547,0.14688 0.9466,0.36721 0.26113,0.21217 0.26113,0.60387 0,0.50594 -0.44066,0.79155 -0.4325,0.27745 -1.06084,0.27745 -1.33014,0 -1.57495,-0.93844 z m 4.81459,0.58755 q 0,0.22033 -0.17137,0.35089 -0.15505,0.11425 -0.35905,0.11425 -0.20401,0 -0.3509,-0.11425 -0.17137,-0.13056 -0.17137,-0.35089 0,-0.22849 0.17137,-0.35906 0.15505,-0.11424 0.38354,-0.11424 0.19585,0 0.33457,0.1224 0.16321,0.13057 0.16321,0.3509 z"
         id="path7" /></g><path
       id="rect6"
       style="fill:#000000;fill-opacity:0;stroke:#000000;stroke-width:0.615249;stroke-dasharray:none;stroke-opacity:1"
       d="M 117.16734,18.829742 H 1.3659184 v 40.71393 c 0,2.75501 3.031196,4.9729 6.796477,4.9729 H 110.37085 c 3.76529,0 6.79649,-2.21789 6.79649,-4.9729 z" /><path
       id="path6"
       style="fill:#000000;fill-opacity:1;stroke:#000000;stroke-width:0.615419;stroke-dasharray:none;stroke-opacity:1"
       d="m 8.1624704,1.2675884 c -3.765275,0 -6.796467,2.219118 -6.796467,4.975654 V 18.743572 H 117.16725 V 6.2432424 c 0,-2.756536 -3.03119,-4.975654 -6.79647,-4.975654 z" /><g
       aria-label="WARNING"
       id="text108"
       style="font-size:17.6389px;line-height:1.25;font-family:Gidugu;-inkscape-font-specification:Gidugu;fill:#f4c328;stroke-width:0.264583"><path
         d="M 37.280129,14.836275 35.224349,6.20514 h 1.804692 l 1.31821,5.979022 1.58499,-5.979022 h 2.134244 l 1.522218,6.07318 1.333903,-6.07318 h 1.773306 l -2.102858,8.631135 h -1.914543 l -1.710534,-6.4968908 -1.74192,6.4968908 z"
         id="path1056" /><path
         d="m 55.468264,14.836275 h -1.89885 l -0.768955,-1.993008 h -3.48384 l -0.721877,1.993008 H 46.742971 L 50.101267,6.20514 H 52.01581 Z M 52.282591,11.525058 51.042846,8.1510686 49.803101,11.525058 Z"
         id="path1058" /><path
         d="M 56.252896,14.836275 V 6.20514 h 3.734927 q 1.757613,0 2.605034,0.5178681 0.84742,0.5178681 0.84742,1.8674637 0,2.0400862 -2.542261,2.4167182 1.145587,0.596332 2.181323,2.259788 l 0.988657,1.569297 h -2.071472 l -1.89885,-2.840428 Q 59.799508,11.556444 59.454262,11.368128 59.109017,11.164119 58.38714,11.164119 h -0.360938 v 3.672156 z m 1.773306,-4.9119006 h 1.31821 q 1.318209,0 1.788998,-0.2197016 0.486483,-0.2353946 0.486483,-0.9886572 0,-0.7218767 -0.408018,-0.9415784 -0.392324,-0.2353945 -1.804691,-0.2353945 h -1.380982 z"
         id="path1060" /><path
         d="M 64.852622,14.836275 V 6.20514 h 1.74192 l 3.59369,5.837786 V 6.20514 h 1.616377 v 8.631135 H 70.01561 L 66.500384,9.1397258 v 5.6965492 z"
         id="path1062" /><path
         d="M 73.201251,14.836275 V 6.20514 h 1.788999 v 8.631135 z"
         id="path1064" /><path
         d="M 76.26138,14.836275 V 6.20514 h 1.74192 l 3.593691,5.837786 V 6.20514 h 1.616376 v 8.631135 H 81.424368 L 77.909142,9.1397258 v 5.6965492 z"
         id="path1066" /><path
         d="m 88.815728,11.556444 v -1.302517 h 3.813392 v 3.358296 q -1.443754,1.333903 -3.75062,1.333903 -2.197017,0 -3.326911,-1.255438 -1.129894,-1.271131 -1.129894,-3.248445 0,-2.1970166 1.255438,-3.2955246 1.255438,-1.1142011 3.091516,-1.1142011 3.201366,0 3.719234,2.4324107 l -1.74192,0.3138595 q -0.392324,-1.3809816 -1.977314,-1.3809816 -2.526569,0 -2.526569,2.9816651 0,1.506525 0.659105,2.353945 0.674798,0.847421 1.851771,0.847421 1.098508,0 2.087165,-0.753263 v -1.27113 z"
         id="path1068" /></g><path
       sodipodi:type="star"
       style="fill:#f4c328;fill-opacity:1;stroke:#f4c328;stroke-width:4.85378;stroke-linecap:round;stroke-linejoin:round;stroke-opacity:1"
       id="path1"
       inkscape:flatsided="false"
       sodipodi:sides="3"
       sodipodi:cx="14.218739"
       sodipodi:cy="23.573172"
       sodipodi:r1="23.88002"
       sodipodi:r2="12.073121"
       sodipodi:arg1="0.52359878"
       sodipodi:arg2="1.5707963"
       inkscape:rounded="0"
       inkscape:randomized="0"
       inkscape:transform-center-y="-1.9680523"
       transform="matrix(0.33337324,0,0,0.33337324,9.1049681,3.928447)"
       inkscape:transform-center-x="-4.0675326e-06"
       d="M 34.899443,35.513182 14.218739,35.646293 -6.4619656,35.513182 3.7631088,17.536611 14.218739,-0.30684853 24.674368,17.536611 Z" /><g
       aria-label="!"
       id="text1"
       style="font-size:17.6389px;line-height:1.25;font-family:Gidugu;-inkscape-font-specification:Gidugu;stroke-width:0.264583"><path
         d="m 13.821589,13.128773 q -0.07846,0 -0.172623,-0.156929 -0.07846,-0.15693 -0.125543,-0.408018 L 12.958476,6.3651024 q -0.07846,-0.4864822 0.07846,-0.8631135 0.172623,-0.3766313 0.486483,-0.3766313 h 0.957271 q 0.282473,0 0.42371,0.3766313 0.125544,0.3766313 0.04708,0.8631135 L 14.19822,12.563826 q -0.04708,0.251088 -0.156929,0.408018 -0.109851,0.156929 -0.219702,0.156929 z m 0,2.47949 q -0.470789,0 -0.831728,-0.251088 -0.329552,-0.26678 -0.329552,-0.612025 0,-0.360939 0.329552,-0.596333 0.360939,-0.251088 0.831728,-0.251088 0.470789,0 0.800342,0.251088 0.329552,0.235394 0.329552,0.596333 0,0.345245 -0.329552,0.612025 -0.329553,0.251088 -0.800342,0.251088 z"
         id="path1035" /></g><rect
       style="fill:#c8b7b7;fill-opacity:0;stroke-width:0.529167;stroke-linecap:round;stroke-linejoin:round"
       id="rect106"
       width="75.141663"
       height="61.647915"
       x="-232.56874"
       y="110.86041" /><rect
       style="fill:#645c5c;fill-opacity:0;stroke-width:0.552166;stroke-linecap:round;stroke-linejoin:round"
       id="rect140"
       width="111.03421"
       height="43.198334"
       x="3.8037419"
       y="19.866598" /></g></svg>
