<?xml version="1.0" encoding="UTF-8" standalone="no"?>
<svg
   version="1.1"
   viewBox="0 0 16 16"
   id="svg1"
   sodipodi:docname="bluetooth-active-symbolic-light.svg"
   inkscape:version="1.4 (1:1.4+202410161351+e7c3feb100)"
   xmlns:inkscape="http://www.inkscape.org/namespaces/inkscape"
   xmlns:sodipodi="http://sodipodi.sourceforge.net/DTD/sodipodi-0.dtd"
   xmlns="http://www.w3.org/2000/svg"
   xmlns:svg="http://www.w3.org/2000/svg">
  <defs
     id="defs1" />
  <sodipodi:namedview
     id="namedview1"
     pagecolor="#ffffff"
     bordercolor="#666666"
     borderopacity="1.0"
     inkscape:showpageshadow="2"
     inkscape:pageopacity="0.0"
     inkscape:pagecheckerboard="0"
     inkscape:deskcolor="#d1d1d1"
     inkscape:zoom="35.885669"
     inkscape:cx="6.339578"
     inkscape:cy="9.6417319"
     inkscape:window-width="1854"
     inkscape:window-height="1021"
     inkscape:window-x="66"
     inkscape:window-y="29"
     inkscape:window-maximized="1"
     inkscape:current-layer="svg1" />
  <path
     d="m4.662 0c-0.838 0.01-1.45-0.02-1.953 0.258-0.25 0.138-0.45 0.371-0.56 0.664-0.11 0.292-0.149 0.64-0.149 1.078v12c0 0.438 0.039 0.786 0.149 1.078 0.11 0.293 0.31 0.528 0.56 0.666 0.502 0.277 1.115 0.246 1.953 0.256h5.676c0.839-0.01 1.451 0.021 1.953-0.256a1.25 1.25 0 0 0 0.56-0.666c0.11-0.292 0.15-0.64 0.15-1.078v-12c0-0.438-0.04-0.786-0.15-1.078a1.253 1.253 0 0 0-0.56-0.664c-0.502-0.277-1.114-0.248-1.953-0.258h-5.674zm2.338 1.303 4.24 4.238-2.939 2.469 2.94 2.469-4.24 4.238v-5.613l-2.429 2.039-0.644-0.766 2.818-2.367-2.818-2.367 0.644-0.766 2.428 2.039zm1 2.414v3.24l1.76-1.48zm0 5.345v3.24l1.76-1.759z"
     fill="#808080"
     font-family="sans-serif"
     font-weight="400"
     overflow="visible"
     style="isolation:auto;mix-blend-mode:normal;shape-padding:0;text-decoration-color:#000000;text-decoration-line:none;text-decoration-style:solid;text-indent:0;text-transform:none;fill:#f2f2f2;fill-opacity:1"
     white-space="normal"
     id="path1" />
</svg>
