<?xml version="1.0" encoding="UTF-8"?>
<svg width="128px" height="128px" viewBox="0 0 128 128" xmlns="http://www.w3.org/2000/svg">
 <linearGradient id="a" x1="98" x2="108" y1="112" y2="112" gradientUnits="userSpaceOnUse">
  <stop stop-color="#16529c" offset="0"/>
  <stop stop-color="#236ac0" offset="1"/>
 </linearGradient>
 <linearGradient id="b" x1="1" x2="1" y1="215" y2="171" gradientTransform="matrix(0 -1 1 0 -157 121)" gradientUnits="userSpaceOnUse">
  <stop stop-color="#2166bb" offset="0"/>
  <stop stop-color="#89eda9" offset="1"/>
 </linearGradient>
 <filter id="c" x="0%" y="0%" width="100%" height="100%">
  <feColorMatrix in="SourceGraphic" values="0 0 0 0 1 0 0 0 0 1 0 0 0 0 1 0 0 0 1 0"/>
 </filter>
 <mask id="d">
  <g filter="url(#c)">
   <rect width="128" height="128" fill-opacity=".5"/>
  </g>
 </mask>
 <clipPath id="e">
  <rect width="192" height="152"/>
 </clipPath>
 <mask id="f">
  <g filter="url(#c)">
   <rect width="128" height="128" fill-opacity=".5"/>
  </g>
 </mask>
 <clipPath id="g">
  <rect width="192" height="152"/>
 </clipPath>
 <mask id="h">
  <g filter="url(#c)">
   <rect width="128" height="128" fill-opacity=".5"/>
  </g>
 </mask>
 <clipPath id="i">
  <rect width="192" height="152"/>
 </clipPath>
 <path d="m64 5c33.137 0 60 26.863 60 60s-26.863 60-60 60-60-26.863-60-60 26.863-60 60-60z" fill="url(#a)"/>
 <path d="m64 5c-33.137 0-60 26.863-60 60s26.863 60 60 60z" fill="url(#b)"/>
 <path d="m124 63c0 33.137-26.863 60-60 60s-60-26.863-60-60 26.863-60 60-60 60 26.863 60 60z" fill="#40a1c8"/>
 <path d="m28.004 64c0.125 13.914 2.8828 27.367 7.8359 38.25-3.9414 2.0156-7.2812 4.4414-9.8633 7.1602-13.641-11.172-21.676-27.781-21.969-45.41z" fill="#49bbb0"/>
 <path d="m64 96v27c-4.5 0-8.9883-0.50781-13.375-1.5117-5.8008-4.0586-10.895-10.691-14.781-19.238 7.9023-4.0391 17.867-6.25 28.156-6.25z" fill="#378bde"/>
 <path d="m99.996 64c-0.125 13.914-2.8828 27.367-7.8398 38.25 3.9453 2.0156 7.2812 4.4414 9.8633 7.1602 13.641-11.172 21.676-27.781 21.973-45.41z" fill="#266ec6"/>
 <path d="m64 64v59c4.5 0 8.9883-0.50781 13.375-1.5117 13.473-9.4336 22.391-32.098 22.621-57.488z" fill="#378bde"/>
 <path d="m64 96v27c4.5 0 8.9883-0.50781 13.375-1.5117 5.8008-4.0586 10.895-10.691 14.781-19.238-7.9023-4.0391-17.867-6.25-28.156-6.25z" fill="#266ec6"/>
 <path d="m92.16 102.25c-3.8906 8.5469-8.9844 15.176-14.781 19.238 9.0352-2.0664 17.473-6.2031 24.645-12.078-2.582-2.7188-5.9219-5.1445-9.8633-7.1602z" fill="#1e62b5"/>
 <path d="m64 3c-33.137 0-60 26.863-60 60 0 0.33203 0.003906 0.66797 0.007812 1h59.992z" fill="#53d795"/>
 <path d="m50.625 4.5078c-9.0391 2.0703-17.477 6.2031-24.648 12.078 2.582 2.7227 5.9219 5.1445 9.8672 7.1641 3.8906-8.5508 8.9844-15.18 14.781-19.242z" fill="#72e99a"/>
 <path d="m64 3c-4.5 0-8.9844 0.50781-13.375 1.5078-13.664 9.5703-22.625 32.734-22.625 58.492 0 0.33203 0 0.66797 0.003906 1h35.996z" fill="#49bbb0"/>
 <path d="m64 3c-4.5 0-8.9844 0.50781-13.375 1.5078-5.7969 4.0625-10.891 10.691-14.781 19.242 7.9062 4.0391 17.867 6.25 28.156 6.25z" fill="#53d795"/>
 <path d="m64 3c33.137 0 60 26.863 60 60 0 0.33203-0.003906 0.66797-0.007812 1h-59.992z" fill="#378bde"/>
 <path d="m77.375 4.5078c9.0391 2.0703 17.477 6.2031 24.648 12.078-2.582 2.7227-5.9219 5.1445-9.8633 7.1602-3.8945-8.5469-8.9883-15.176-14.785-19.238z" fill="#40a1c8"/>
 <path d="m64 3c4.5 0 8.9883 0.50781 13.375 1.5078 13.664 9.5703 22.625 32.734 22.625 58.492 0 0.33203 0 0.66797-0.003906 1h-35.996z" fill="#40a1c8"/>
 <path d="m64 3c4.5 0 8.9883 0.50781 13.375 1.5078 5.7969 4.0625 10.891 10.691 14.781 19.238-7.9062 4.043-17.867 6.2539-28.156 6.2539z" fill="#49bbb0"/>
 <g transform="translate(-8 -16)" clip-path="url(#e)" mask="url(#d)">
  <path d="m169.5 24v1h13v-1z" fill="#2e3436"/>
 </g>
 <g transform="translate(-8 -16)" clip-path="url(#g)" mask="url(#f)">
  <path d="m169.5 21v1h13v-1z" fill="#2e3436"/>
 </g>
 <g transform="translate(-8 -16)" clip-path="url(#i)" mask="url(#h)">
  <path d="m169.5 27v1h13v-1z" fill="#2e3436"/>
 </g>
</svg>
